<?xml version="1.0" encoding="utf-8"?>

<!DOCTYPE svg PUBLIC "-//W3C//DTD SVG 1.1//EN" "http://www.w3.org/Graphics/SVG/1.1/DTD/svg11.dtd">
<svg version="1.1" id="Layer_1" xmlns="http://www.w3.org/2000/svg" xmlns:xlink="http://www.w3.org/1999/xlink" x="0px" y="0px"
	 viewBox="0 0 2634.264 1428.241" enable-background="new 0 0 2634.264 1428.241" xml:space="preserve">
<path d="M2596.995,714.121c0.7,1.755-1.292,3.313-5.893,5.558c-38.514,18.79-61.953,74.557-62.01,147.531
	c-0.028,36.037,8.575,105.712,19.887,161.072c10.839,53.042,13.321,65.858,15.175,78.371
	c16.538,111.61-9.532,182.636-76.276,207.828c-28.572,10.783-65.494,3.599-86.943-16.916l-3.319-3.174l-0.453,9.144
	c-2.696,54.401-57.015,85.957-137.529,79.888c-28.395-2.139-28.713-2.218-112.305-27.643
	c-103.587-31.508-133.012-37.702-195.523-41.162c-75.619-4.186-95.297,4.294-95.33,41.085c-0.006,5.888-0.199,10.705-0.43,10.705
	c-1.032,0-12.916-3.46-16.766-4.882c-14.806-5.466-26.708-14.9-32.299-25.601c-2.703-5.173-2.563-5.173-5.051,0.014
	c-6.222,12.969-34.609,30.469-49.425,30.469c-0.151,0-0.149-4.09,0.008-9.089c0.56-18.149-5.211-30.964-16.78-37.262
	c-16.219-8.828-84.285-8.079-143.055,1.571c-40.244,6.609-53.364,10.204-190.005,52.069c-27.047,8.287-57.047,11.606-85.542,9.828
	c-28.495,1.778-58.495-1.541-85.542-9.828c-136.641-41.865-149.761-45.46-190.005-52.069c-58.77-9.651-126.836-10.399-143.055-1.571
	c-11.569,6.297-17.341,19.113-16.78,37.262c0.157,4.999,0.159,9.089,0.008,9.089c-14.816,0-43.204-17.499-49.425-30.469
	c-2.489-5.187-2.348-5.186-5.051-0.014c-5.591,10.701-17.494,20.136-32.299,25.601c-3.85,1.421-15.733,4.881-16.766,4.882
	c-0.231,0-0.424-4.817-0.43-10.705c-0.032-36.791-19.711-45.271-95.33-41.085c-62.511,3.46-91.936,9.654-195.523,41.162
	c-83.592,25.426-83.91,25.504-112.305,27.643c-80.514,6.069-134.833-25.487-137.529-79.888l-0.453-9.144l-3.319,3.174
	c-21.449,20.516-58.371,27.699-86.943,16.916c-66.744-25.192-92.814-96.218-76.276-207.828c1.854-12.513,4.335-25.328,15.175-78.371
	c11.313-55.361,19.916-125.035,19.888-161.072c-0.057-72.975-23.497-128.741-62.011-147.531c-4.601-2.244-6.593-3.803-5.893-5.558
	c-0.7-1.755,1.292-3.313,5.893-5.558c38.514-18.79,61.953-74.556,62.011-147.531c0.028-36.037-8.575-105.712-19.888-161.072
	c-10.839-53.043-13.321-65.858-15.175-78.371c-16.538-111.61,9.532-182.636,76.276-207.828c28.572-10.783,65.494-3.6,86.943,16.916
	l3.319,3.174l0.453-9.144c2.696-54.401,57.015-85.957,137.529-79.888c28.395,2.139,28.713,2.218,112.305,27.643
	c103.587,31.508,133.012,37.702,195.523,41.162c75.619,4.186,95.297-4.294,95.33-41.085c0.006-5.888,0.199-10.705,0.43-10.705
	c1.032,0,12.916,3.46,16.766,4.882c14.806,5.466,26.708,14.9,32.299,25.601c2.703,5.173,2.563,5.173,5.051-0.014
	c6.222-12.969,34.609-30.468,49.425-30.468c0.151,0,0.149,4.09-0.008,9.089c-0.56,18.149,5.211,30.965,16.78,37.262
	c16.219,8.828,84.285,8.079,143.055-1.571c40.244-6.609,53.364-10.204,190.005-52.069c27.047-8.287,57.047-11.606,85.542-9.828
	c28.495-1.778,58.495,1.541,85.542,9.828c136.641,41.865,149.761,45.46,190.005,52.069c58.77,9.651,126.836,10.399,143.055,1.571
	c11.569-6.297,17.341-19.113,16.78-37.262c-0.157-4.999-0.159-9.089-0.008-9.089c14.816,0,43.204,17.499,49.425,30.468
	c2.488,5.187,2.348,5.186,5.051,0.014c5.591-10.701,17.494-20.136,32.299-25.601c3.85-1.421,15.733-4.881,16.766-4.882
	c0.231,0,0.424,4.817,0.43,10.705c0.032,36.791,19.711,45.271,95.33,41.085c62.511-3.461,91.936-9.654,195.523-41.162
	c83.592-25.426,83.91-25.504,112.305-27.643c80.513-6.069,134.833,25.487,137.529,79.888l0.453,9.144l3.319-3.174
	c21.449-20.516,58.371-27.699,86.943-16.916c66.744,25.192,92.813,96.218,76.276,207.828c-1.854,12.513-4.335,25.328-15.175,78.371
	c-11.313,55.361-19.916,125.035-19.887,161.072c0.057,72.975,23.497,128.741,62.01,147.531
	C2595.703,710.807,2597.695,712.366,2596.995,714.121z M1317.132,1345.998c36.635,3.137,86.576-8.408,158.48-34.994
	c93.431-34.544,191.847-46.627,255.861-31.413c10.351,2.46,9.379,2.575,10.644-1.258c7.67-23.241,49.197-20.241,59.835,4.321
	c2.428,5.607,2.265,5.621,5.18-0.446c11.832-24.631,54.563-26.946,59.77-3.238c0.685,3.118-0.08,3.076,10.505,0.575
	c4.724-1.116,11.937-2.38,16.029-2.809c4.092-0.429,9.621-1.235,12.287-1.791c7.929-1.653,59.678-1.358,76.755,0.438
	c54.43,5.725,97.761,15.904,148.977,34.997c119.067,44.385,174.484,47.435,216.336,11.905c11.167-9.481,13.832-24.689,6.318-36.045
	c-2.481-3.749-3.021-3.787-4.28-0.304c-6.267,17.331-37.271,16.42-42.517-1.25c-9.454-31.833,36.287-58.826,64.061-37.804
	c2.312,1.75,4.34,3.182,4.505,3.182c0.165,0,0.431-4.11,0.59-9.133c1.431-45.067,66.839-55.827,66.934-11.011
	c0.025,11.83-9.95,24.178-19.535,24.183c-6.184,0,5.105,12.838,15.619,17.758c30.696,14.365,65.601-4.304,79.278-42.399
	c10.32-28.745,8.069-62.038-12.727-188.252c-12.944-78.557-15.571-101.187-16.882-145.43
	c-2.214-77.167,13.267-138.999,44.052-175.656l4.789-5.704l-0.267-0.299l0.267-0.299l-4.789-5.704
	c-30.785-36.657-46.266-98.489-44.052-175.656c1.311-44.243,3.938-66.873,16.882-145.43
	c20.796-126.213,23.047-159.506,12.727-188.252c-13.677-38.095-48.582-56.764-79.278-42.399
	c-10.513,4.92-21.802,17.758-15.619,17.758c9.586,0.005,19.561,12.353,19.535,24.183c-0.095,44.816-65.504,34.057-66.934-11.011
	c-0.159-5.023-0.425-9.133-0.59-9.133c-0.165,0-2.192,1.432-4.505,3.182c-27.774,21.022-73.514-5.971-64.061-37.804
	c5.247-17.67,36.25-18.581,42.517-1.25c1.26,3.483,1.799,3.445,4.28-0.304c7.514-11.356,4.849-26.564-6.318-36.045
	c-41.852-35.53-97.269-32.48-216.336,11.905c-51.216,19.093-94.548,29.272-148.977,34.997c-17.077,1.796-68.826,2.091-76.755,0.438
	c-2.666-0.556-8.195-1.362-12.287-1.791c-4.092-0.429-11.305-1.693-16.029-2.809c-10.585-2.501-9.82-2.543-10.505,0.575
	c-5.207,23.708-47.939,21.393-59.77-3.238c-2.915-6.068-2.751-6.053-5.18-0.446c-10.638,24.562-52.165,27.562-59.835,4.321
	c-1.265-3.832-0.293-3.717-10.644-1.257c-64.014,15.214-162.43,3.131-255.861-31.413c-71.905-26.586-121.845-38.132-158.48-34.994
	c-36.635-3.137-86.575,8.408-158.48,34.994c-93.431,34.544-191.847,46.627-255.861,31.413c-10.351-2.46-9.379-2.575-10.644,1.257
	c-7.67,23.241-49.197,20.241-59.835-4.321c-2.429-5.607-2.265-5.621-5.18,0.446c-11.832,24.631-54.563,26.946-59.77,3.238
	c-0.685-3.118,0.08-3.076-10.505-0.575c-4.724,1.116-11.937,2.38-16.029,2.809c-4.092,0.429-9.621,1.235-12.287,1.791
	c-7.929,1.653-59.678,1.358-76.755-0.438c-54.43-5.725-97.762-15.904-148.977-34.997c-119.067-44.385-174.484-47.435-216.336-11.905
	c-11.167,9.481-13.832,24.689-6.317,36.045c2.481,3.749,3.02,3.787,4.28,0.304c6.267-17.331,37.271-16.42,42.517,1.25
	c9.454,31.833-36.286,58.826-64.06,37.804c-2.312-1.75-4.34-3.182-4.505-3.182c-0.165,0-0.431,4.11-0.59,9.133
	c-1.431,45.067-66.839,55.827-66.934,11.011c-0.025-11.83,9.95-24.178,19.535-24.183c6.184,0-5.105-12.838-15.618-17.758
	c-30.696-14.365-65.601,4.304-79.278,42.399c-10.32,28.745-8.069,62.038,12.727,188.252c12.944,78.557,15.571,101.187,16.882,145.43
	c2.214,77.167-13.266,138.999-44.052,175.656l-4.789,5.704l0.267,0.299l-0.267,0.299l4.789,5.704
	c30.785,36.657,46.265,98.489,44.052,175.656c-1.311,44.243-3.938,66.873-16.882,145.43
	c-20.796,126.213-23.047,159.506-12.727,188.252c13.677,38.095,48.582,56.764,79.278,42.399
	c10.513-4.92,21.802-17.758,15.618-17.758c-9.585-0.005-19.561-12.353-19.535-24.183c0.095-44.816,65.504-34.057,66.934,11.011
	c0.159,5.023,0.425,9.133,0.59,9.133c0.165,0,2.192-1.432,4.505-3.182c27.774-21.022,73.514,5.971,64.06,37.804
	c-5.247,17.67-36.25,18.581-42.517,1.25c-1.26-3.483-1.799-3.445-4.28,0.304c-7.515,11.356-4.849,26.564,6.317,36.045
	c41.852,35.53,97.269,32.48,216.336-11.905c51.216-19.094,94.548-29.272,148.977-34.997c17.077-1.796,68.826-2.091,76.755-0.438
	c2.666,0.556,8.195,1.362,12.287,1.791c4.092,0.429,11.305,1.693,16.029,2.809c10.585,2.501,9.82,2.543,10.505-0.575
	c5.207-23.708,47.939-21.393,59.77,3.238c2.915,6.068,2.751,6.054,5.18,0.446c10.638-24.563,52.165-27.562,59.835-4.321
	c1.265,3.832,0.293,3.718,10.644,1.258c64.014-15.214,162.43-3.131,255.861,31.413
	C1230.557,1337.59,1280.497,1349.135,1317.132,1345.998z M1317.132,1376.396c9.03,0.523,18.559,0.476,28.533-0.167
	c31.08-2.004,24.137-0.224,148.371-38.038c83.364-25.374,150.512-35.046,213.742-30.792c36.442,2.452,51.225,14.778,52.207,43.529
	c0.235,6.894,3.494,6.67,17.661-1.216c39.584-22.035,23.812-92.276-17.578-78.284c-19.757,6.678-11.702,35.879,8.405,30.465
	c8.393-2.26,11.201-12.472,3.931-14.296c-1.77-0.444-2.01-0.939-2.01-4.158v-3.654l2.903,0.471
	c6.558,1.064,11.358,7.44,10.608,14.09c-2.297,20.38-35.457,20.304-41.386-0.094l-1.277-4.393l-6.229-1.726
	c-59.833-16.584-162.308-5.068-252.653,28.391c-77.711,28.781-127.525,40.685-165.229,36.976
	c-37.704,3.708-87.517-8.195-165.229-36.976c-90.344-33.459-192.82-44.975-252.653-28.391l-6.229,1.726l-1.277,4.393
	c-5.93,20.398-39.089,20.474-41.386,0.094c-0.75-6.65,4.05-13.026,10.608-14.09l2.903-0.471v3.654c0,3.219-0.239,3.714-2.01,4.158
	c-7.27,1.824-4.462,12.036,3.931,14.296c20.107,5.414,28.163-23.786,8.405-30.465c-41.39-13.992-57.162,56.249-17.578,78.284
	c14.167,7.886,17.426,8.111,17.661,1.216c0.982-28.751,15.765-41.077,52.207-43.529c63.23-4.255,130.378,5.418,213.742,30.792
	c124.235,37.814,117.291,36.034,148.371,38.038C1298.573,1376.872,1308.102,1376.919,1317.132,1376.396z M1317.132,51.845
	c-9.03-0.523-18.559-0.476-28.533,0.167c-31.08,2.004-24.137,0.224-148.371,38.038c-83.364,25.374-150.512,35.046-213.742,30.792
	c-36.442-2.452-51.225-14.778-52.207-43.529c-0.235-6.894-3.494-6.67-17.661,1.216c-39.584,22.035-23.812,92.276,17.578,78.284
	c19.758-6.678,11.701-35.878-8.405-30.464c-8.393,2.26-11.201,12.472-3.931,14.296c1.77,0.444,2.01,0.94,2.01,4.158v3.654
	l-2.903-0.471c-6.558-1.064-11.358-7.44-10.608-14.091c2.297-20.38,35.457-20.304,41.386,0.094l1.277,4.393l6.229,1.726
	c59.833,16.584,162.308,5.068,252.653-28.391c77.712-28.781,127.525-40.685,165.229-36.976
	c37.704-3.709,87.517,8.195,165.229,36.976c90.345,33.459,192.82,44.975,252.653,28.391l6.229-1.726l1.277-4.393
	c5.93-20.398,39.089-20.474,41.386-0.094c0.75,6.65-4.05,13.026-10.608,14.091l-2.903,0.471v-3.654c0-3.219,0.239-3.714,2.01-4.158
	c7.27-1.824,4.462-12.036-3.931-14.296c-20.107-5.414-28.162,23.786-8.405,30.464c41.39,13.992,57.162-56.248,17.578-78.284
	c-14.167-7.886-17.426-8.111-17.661-1.216c-0.982,28.751-15.766,41.077-52.207,43.529c-63.23,4.255-130.378-5.418-213.742-30.792
	c-124.235-37.814-117.291-36.034-148.371-38.038C1335.691,51.369,1326.162,51.322,1317.132,51.845z M1809.587,1322.294
	c4.251,16.32,16.871,27.806,37.361,34.002c1.739,0.526,1.818,0.346,1.832-4.15c0.099-33.18,16.571-44.033,68.662-45.244
	c71.16-1.653,115.423,6.333,232.285,41.909c81.166,24.709,84.293,25.465,113.314,27.396c52.989,3.527,96.348-10.831,114.914-38.053
	c29.392-43.097,0.132-102.577-43.726-88.89c-24.761,7.728-29.007,42.026-5.203,42.026c12.019,0,17.291-8.54,12.185-19.742
	l-2.829-6.209l5.762,3.078c26.39,14.096,29.254,43.089,6.075,61.507c-44.667,35.495-100.953,32.292-221.499-12.603
	c-91.758-34.174-193.358-45.821-254.899-29.218c-6.143,1.658-6.455,1.854-6.927,4.369c-3.801,20.262-36.08,23.646-41.483,4.35
	c-2.248-8.031,3.662-16.729,11.435-16.826c2.79-0.035,1.925,6.707-1.002,7.812c-8.42,3.178-1.858,14.457,8.333,14.324
	c16.976-0.222,22.707-21.779,7.818-29.405c-25.498-13.06-50.969,16.706-42.411,49.563L1809.587,1322.294z M824.677,105.947
	c-4.251-16.32-16.871-27.806-37.361-34.002c-1.739-0.526-1.819-0.346-1.832,4.15c-0.099,33.18-16.571,44.033-68.662,45.243
	c-71.16,1.653-115.423-6.333-232.285-41.909c-81.166-24.709-84.293-25.465-113.315-27.396
	c-52.989-3.527-96.348,10.831-114.914,38.053c-29.391,43.097-0.132,102.577,43.726,88.89c24.761-7.728,29.007-42.026,5.203-42.026
	c-12.019,0-17.291,8.54-12.185,19.742l2.829,6.209l-5.762-3.078c-26.39-14.096-29.254-43.089-6.076-61.507
	c44.667-35.495,100.953-32.292,221.499,12.603c91.758,34.175,193.358,45.821,254.899,29.218c6.143-1.658,6.455-1.854,6.927-4.369
	c3.801-20.262,36.081-23.646,41.483-4.35c2.248,8.031-3.662,16.729-11.435,16.826c-2.79,0.035-1.925-6.707,1.002-7.811
	c8.42-3.178,1.858-14.457-8.333-14.324c-16.976,0.222-22.707,21.779-7.818,29.405c25.498,13.06,50.969-16.706,42.411-49.563
	L824.677,105.947z M824.679,1322.29c8.559-32.858-16.913-62.623-42.411-49.563c-14.889,7.626-9.158,29.183,7.818,29.405
	c10.192,0.133,16.754-11.146,8.333-14.324c-2.927-1.105-3.792-7.846-1.002-7.812c7.772,0.098,13.683,8.796,11.435,16.826
	c-5.403,19.296-37.682,15.911-41.483-4.35c-0.472-2.514-0.784-2.711-6.927-4.369c-61.541-16.603-163.141-4.957-254.899,29.218
	c-120.546,44.895-176.832,48.098-221.499,12.603c-23.179-18.419-20.314-47.411,6.076-61.507l5.762-3.078l-2.829,6.209
	c-5.105,11.202,0.166,19.742,12.185,19.742c23.804,0,19.558-34.298-5.203-42.026c-43.858-13.687-73.118,45.794-43.726,88.89
	c18.567,27.221,61.925,41.58,114.914,38.053c29.021-1.931,32.148-2.687,113.315-27.396
	c116.861-35.576,161.125-43.562,232.285-41.909c52.091,1.21,68.563,12.063,68.662,45.244c0.013,4.496,0.093,4.676,1.832,4.15
	c20.49-6.196,33.11-17.682,37.361-34.002L824.679,1322.29z M1809.585,105.951c-8.559,32.858,16.913,62.623,42.411,49.563
	c14.889-7.626,9.158-29.183-7.818-29.405c-10.192-0.133-16.754,11.146-8.333,14.324c2.927,1.105,3.792,7.846,1.002,7.811
	c-7.772-0.098-13.683-8.796-11.435-16.826c5.403-19.296,37.682-15.912,41.483,4.35c0.472,2.514,0.784,2.711,6.927,4.369
	c61.541,16.603,163.141,4.957,254.899-29.218c120.546-44.895,176.832-48.098,221.499-12.603
	c23.179,18.419,20.314,47.411-6.075,61.507l-5.762,3.078l2.829-6.209c5.105-11.202-0.166-19.742-12.185-19.742
	c-23.804,0-19.558,34.298,5.203,42.026c43.858,13.687,73.118-45.794,43.726-88.89c-18.567-27.221-61.925-41.58-114.914-38.053
	c-29.021,1.931-32.148,2.687-113.314,27.396c-116.861,35.576-161.125,43.562-232.285,41.909
	c-52.091-1.21-68.563-12.063-68.662-45.243c-0.013-4.496-0.093-4.676-1.832-4.15c-20.49,6.196-33.11,17.682-37.361,34.002
	L1809.585,105.951z M2547.111,714.121c0.167,1.784-1.58,3.45-5.144,7.267c-21.372,22.885-39.615,70.267-43.794,113.743
	c-4.845,50.414-0.552,110.309,14.333,199.967c21.494,129.465,23.966,163.722,14.019,194.239
	c-14.73,45.195-57.01,66.923-93.213,47.901c-13.4-7.042-26.002-27.891-17.675-29.243c15.575-2.528,20.114-6.736,20.043-18.589
	c-0.101-17.153-15.643-26.562-31.109-18.833c-20.544,10.267-26.598,32.365-15.34,55.999c1.693,3.555,4.049,8.535,5.234,11.066
	c15.456,33.004,68.648,44.187,106.681,22.428c61.63-35.307,74.503-108.022,44.457-251.271
	c-10.106-48.154-17.949-98.57-22.343-143.411c-8.298-84.77,13.111-158.309,54.28-186.474l6.391-4.373l-0.615-0.415l0.615-0.415
	l-6.391-4.373c-41.168-28.165-62.578-101.704-54.28-186.474c4.394-44.841,12.237-95.257,22.343-143.411
	c30.046-143.249,17.173-215.964-44.457-251.271c-38.033-21.759-91.225-10.576-106.681,22.428c-1.186,2.531-3.541,7.511-5.234,11.066
	c-11.259,23.633-5.205,45.732,15.34,55.999c15.467,7.729,31.008-1.681,31.109-18.833c0.07-11.853-4.468-16.061-20.043-18.589
	c-8.327-1.352,4.276-22.201,17.675-29.243c36.203-19.022,78.483,2.706,93.213,47.901c9.948,30.516,7.475,64.773-14.019,194.238
	c-14.885,89.658-19.178,149.553-14.333,199.967c4.179,43.476,22.422,90.858,43.794,113.743
	C2545.531,710.67,2547.278,712.337,2547.111,714.121z M87.153,714.121c-0.167-1.784,1.58-3.45,5.144-7.267
	c21.372-22.885,39.615-70.267,43.794-113.743c4.845-50.414,0.553-110.309-14.333-199.967
	c-21.494-129.465-23.966-163.722-14.019-194.238c14.73-45.195,57.01-66.923,93.213-47.901c13.4,7.042,26.002,27.891,17.675,29.243
	c-15.576,2.528-20.114,6.736-20.044,18.589c0.101,17.153,15.643,26.562,31.109,18.833c20.544-10.267,26.598-32.366,15.34-55.999
	c-1.693-3.555-4.049-8.535-5.235-11.066c-15.456-33.004-68.648-44.187-106.681-22.428c-61.63,35.307-74.503,108.022-44.457,251.271
	c10.106,48.154,17.949,98.569,22.343,143.411c8.298,84.77-13.111,158.309-54.279,186.474l-6.391,4.373l0.615,0.415l-0.615,0.415
	l6.391,4.373c41.168,28.165,62.578,101.704,54.279,186.474c-4.394,44.841-12.237,95.257-22.343,143.411
	c-30.046,143.249-17.173,215.964,44.457,251.271c38.033,21.759,91.225,10.576,106.681-22.428c1.186-2.531,3.541-7.511,5.235-11.066
	c11.259-23.633,5.205-45.732-15.34-55.999c-15.467-7.729-31.008,1.681-31.109,18.833c-0.07,11.853,4.468,16.061,20.044,18.589
	c8.327,1.352-4.276,22.201-17.675,29.243c-36.202,19.022-78.483-2.706-93.213-47.901c-9.947-30.516-7.475-64.773,14.019-194.239
	c14.885-89.658,19.178-149.553,14.333-199.967c-4.179-43.476-22.422-90.858-43.794-113.743
	C88.733,717.571,86.986,715.904,87.153,714.121z"/>
</svg>
