<?xml version="1.0" encoding="UTF-8" standalone="no"?>
<!-- Created with Inkscape (http://www.inkscape.org/) -->
<!-- ClipArt by Arvin61r58 (http://openclipart.org/user-detail/Arvin61r58) -->
<svg id="svg2" xmlns:rdf="http://www.w3.org/1999/02/22-rdf-syntax-ns#" xmlns="http://www.w3.org/2000/svg" height="1052.4" viewBox="0 0 744.09449 1052.3622" width="744.09" version="1.1" xmlns:cc="http://creativecommons.org/ns#" xmlns:dc="http://purl.org/dc/elements/1.1/">
 <title id="title5530">Border 49 (A4 size)</title>
 <metadata id="metadata7">
  <rdf:RDF>
   <cc:Work rdf:about="">
    <dc:format>image/svg+xml</dc:format>
    <dc:type rdf:resource="http://purl.org/dc/dcmitype/StillImage"/>
    <dc:title>Border 49 (A4 size)</dc:title>
    <cc:license rdf:resource="http://creativecommons.org/publicdomain/zero/1.0/"/>
    <dc:creator>
     <cc:Agent>
      <dc:title>Arvin61r58</dc:title>
     </cc:Agent>
    </dc:creator>
    <dc:publisher>
     <cc:Agent>
      <dc:title>Openclipart.org</dc:title>
     </cc:Agent>
    </dc:publisher>
    <dc:identifier>https://openclipart.org/</dc:identifier>
    <dc:source>https://openclipart.org/user-detail/Arvin61r58</dc:source>
    <dc:description>frame/border sized to A4 (210x297mm) size paper</dc:description>
    <dc:subject>
     <rdf:Bag>
      <rdf:li>frame</rdf:li>
      <rdf:li>border</rdf:li>
      <rdf:li>black and white</rdf:li>
      <rdf:li>monochrome</rdf:li>
     </rdf:Bag>
    </dc:subject>
   </cc:Work>
   <cc:License rdf:about="http://creativecommons.org/publicdomain/zero/1.0/">
    <cc:permits rdf:resource="http://creativecommons.org/ns#Reproduction"/>
    <cc:permits rdf:resource="http://creativecommons.org/ns#Distribution"/>
    <cc:permits rdf:resource="http://creativecommons.org/ns#DerivativeWorks"/>
   </cc:License>
  </rdf:RDF>
 </metadata>
 <g id="layer1">
  <title id="title5610">Border 49  --  by Arvin61r58</title>
  <path id="path4268" style="fill:#000000" d="m21.76 22.524v12.188 12.188h7.3125 7.3125v2.4375 2.4375h-7.3125-7.3125v12.188 12.188h12.188 12.188v-7.3125-7.3125h2.4375 2.4375v9.75 9.75h-14.625-14.625v17.469 17.469 697.61 123.55 17.469 17.469h14.625 14.625v9.75 9.75h-2.4375-2.4375v-7.3125-7.3125h-12.188-12.188v12.188 12.188h7.3125 7.3125v2.4375 2.4375h-7.3125-7.3125v12.188 12.188h12.188 12.188v-7.3125-7.3125h2.4375 2.4375v7.3125 7.3125h12.188 12.188v-12.188-12.188h-7.3125-7.3125v-2.4375-2.4375h9.75 9.75v14.625 14.625h17.469 17.469 77.104 435.36 17.469 17.469v-14.625-14.625h9.75 9.75v2.4375 2.4375h-7.3125-7.3125v12.188 12.188h12.188 12.188v-7.3125-7.3125h2.4375 2.4375v7.3125 7.3125h12.188 12.188v-12.188-12.188h-7.3125-7.3125v-2.4375-2.4375h7.3125 7.3125v-12.188-12.188h-12.188-12.188v7.3125 7.3125h-2.4375-2.4375v-9.75-9.75h14.625 14.625v-17.469-17.469-318.23-502.93-17.469-17.469h-14.625-14.625v-9.75-9.75h2.4375 2.4375v7.3125 7.3125h12.188 12.188v-12.188-12.188h-7.3125-7.3125v-2.4375-2.4375h7.3125 7.3125v-12.188-12.188h-12.188-12.188v7.3125 7.3125h-2.4375-2.4375v-7.3125-7.3125h-12.188-12.188v12.188 12.188h7.3125 7.3125v2.4375 2.4375h-9.75-9.75v-14.625-14.625h-17.469-17.469-435.36-77.104-17.469-17.469v14.625 14.625h-9.75-9.75v-2.4375-2.4375h7.3125 7.3125v-12.188-12.188h-12.188-12.188v7.3125 7.3125h-2.4375-2.4375v-7.3125-7.3125h-12.188-12.188zm2.4375 2.4375h9.75 9.75v13.406 13.406h-2.4375-2.4375v-10.969-10.969h-4.875-4.875v4.875 4.875h3.6562 3.6562v2.4375 2.4375h-6.0938-6.0938v-9.75-9.75zm29.25 0h9.75 9.75v9.75 9.75h-13.406-13.406v-2.4375-2.4375h10.969 10.969v-4.875-4.875h-4.875-4.875v3.6562 3.6562h-2.4375-2.4375v-6.0938-6.0938zm29.25 0h16.25 16.25 107.48 404.98 16.25 16.25v14.625 14.625h10.969 10.969v2.4375 2.4375h-13.406-13.406v-14.625-14.625h-13.812-13.812-344.24-168.22-13.812-13.813v14.625 14.625h-13.406-13.406v-2.4375-2.4375h10.969 10.969v-14.625-14.625zm587.21 0h9.75 9.75v6.0938 6.0938h-2.4375-2.4375v-3.6562-3.6562h-4.875-4.875v4.875 4.875h10.969 10.969v2.4375 2.4375h-13.406-13.406v-9.75-9.75zm29.25 0h9.75 9.75v9.75 9.75h-6.0938-6.0938v-2.4375-2.4375h3.6562 3.6562v-4.875-4.875h-4.875-4.875v10.969 10.969h-2.4375-2.4375v-13.406-13.406zm-667.65 7.3125h2.4375 2.4375v2.4375 2.4375h-2.4375-2.4375v-2.4375-2.4375zm29.25 0h2.4375 2.4375v2.4375 2.4375h-2.4375-2.4375v-2.4375-2.4375zm29.25 0h12.594 12.594 198.6 313.86 12.594 12.594v14.625 14.625h14.625 14.625v14.625 14.625h14.625 14.625v12.594 12.594 697.61 123.55 12.594 12.594h-14.625-14.625v14.625 14.625h-14.625-14.625v14.625 14.625h-12.594-12.594-313.86-198.6-12.594-12.594v-14.625-14.625h-14.625-14.625v-14.625-14.625h-14.625-14.625v-12.594-12.594-318.23-502.93-12.594-12.594h14.625 14.625v-14.625-14.625h14.625 14.625v-14.625-14.625zm587.21 0h2.4375 2.4375v2.4375 2.4375h-2.4375-2.4375v-2.4375-2.4375zm29.25 0h2.4375 2.4375v2.4375 2.4375h-2.4375-2.4375v-2.4375-2.4375zm-660.34 14.625h2.4375 2.4375v2.4375 2.4375h-2.4375-2.4375v-2.4375-2.4375zm7.3125 0h2.4375 2.4375v20.719 20.719h-14.625-14.625v13.813 13.812 551.6 269.56 13.812 13.812h14.625 14.625v20.719 20.719h-2.4375-2.4375v-18.281-18.281h-14.625-14.625v-16.25-16.25-172.22-648.94-16.25-16.25h14.625 14.625v-18.281-18.281zm631.09 0h2.4375 2.4375v18.281 18.281h14.625 14.625v16.25 16.25 551.6 269.56 16.25 16.25h-14.625-14.625v18.281 18.281h-2.4375-2.4375v-20.719-20.719h14.625 14.625v-13.812-13.812-172.22-648.94-13.812-13.813h-14.625-14.625v-20.719-20.719zm7.3125 0h2.4375 2.4375v2.4375 2.4375h-2.4375-2.4375v-2.4375-2.4375zm-667.65 7.3125h13.406 13.406v2.4375 2.4375h-10.969-10.969v4.875 4.875h4.875 4.875v-3.6562-3.6562h2.4375 2.4375v6.0938 6.0938h-9.75-9.75v-9.75-9.75zm667.65 0h13.406 13.406v9.75 9.75h-9.75-9.75v-6.0938-6.0938h2.4375 2.4375v3.6562 3.6562h4.875 4.875v-4.875-4.875h-10.969-10.969v-2.4375-2.4375zm-660.34 7.3125h2.4375 2.4375v2.4375 2.4375h-2.4375-2.4375v-2.4375-2.4375zm674.96 0h2.4375 2.4375v2.4375 2.4375h-2.4375-2.4375v-2.4375-2.4375zm-682.26 917.85h9.75 9.75v6.0938 6.0938h-2.4375-2.4375v-3.6563-3.6562h-4.875-4.875v4.875 4.875h10.969 10.969v2.4375 2.4375h-13.406-13.406v-9.75-9.75zm674.96 0h9.75 9.75v9.75 9.75h-13.406-13.406v-2.4375-2.4375h10.969 10.969v-4.875-4.875h-4.875-4.875v3.6562 3.6563h-2.4375-2.4375v-6.0938-6.0938zm-667.65 7.3125h2.4375 2.4375v2.4375 2.4375h-2.4375-2.4375v-2.4375-2.4375zm674.96 0h2.4375 2.4375v2.4375 2.4375h-2.4375-2.4375v-2.4375-2.4375zm-645.71 7.3125h13.406 13.406v14.625 14.625h13.813 13.812 168.22 344.24 13.812 13.812v-14.625-14.625h13.406 13.406v2.4375 2.4375h-10.969-10.969v14.625 14.625h-16.25-16.25-404.98-107.48-16.25-16.25v-14.625-14.625h-10.969-10.969v-2.4375-2.4375zm-21.938 7.3125h2.4375 2.4375v13.406 13.406h-9.75-9.75v-9.75-9.75h6.0938 6.0938v2.4375 2.4375h-3.6562-3.6562v4.875 4.875h4.875 4.875v-10.969-10.969zm7.3125 0h2.4375 2.4375v2.4375 2.4375h-2.4375-2.4375v-2.4375-2.4375zm645.71 0h2.4375 2.4375v2.4375 2.4375h-2.4375-2.4375v-2.4375-2.4375zm7.3125 0h2.4375 2.4375v10.969 10.969h4.875 4.875v-4.875-4.875h-3.6562-3.6562v-2.4375-2.4375h6.0938 6.0938v9.75 9.75h-9.75-9.75v-13.406-13.406zm-653.02 7.3125h13.406 13.406v9.75 9.75h-9.75-9.75v-6.0938-6.0937h2.4375 2.4375v3.6562 3.6563h4.875 4.875v-4.875-4.875h-10.969-10.969v-2.4375-2.4375zm623.77 0h13.406 13.406v2.4375 2.4375h-10.969-10.969v4.875 4.875h4.875 4.875v-3.6563-3.6562h2.4375 2.4375v6.0937 6.0938h-9.75-9.75v-9.75-9.75zm-638.4 7.3125h2.4375 2.4375v2.4375 2.4375h-2.4375-2.4375v-2.4375-2.4375zm29.25 0h2.4375 2.4375v2.4375 2.4375h-2.4375-2.4375v-2.4375-2.4375zm616.46 0h2.4375 2.4375v2.4375 2.4375h-2.4375-2.4375v-2.4375-2.4375zm29.25 0h2.4375 2.4375v2.4375 2.4375h-2.4375-2.4375v-2.4375-2.4375z"/>
 </g>
</svg>
