<?xml version="1.0" encoding="UTF-8" standalone="no"?>
<!-- Created with Inkscape (http://www.inkscape.org/) -->
<!-- ClipArt by Arvin61r58 (http://openclipart.org/user-detail/Arvin61r58) -->
<svg
   xmlns:dc="http://purl.org/dc/elements/1.1/"
   xmlns:cc="http://creativecommons.org/ns#"
   xmlns:rdf="http://www.w3.org/1999/02/22-rdf-syntax-ns#"
   xmlns:svg="http://www.w3.org/2000/svg"
   xmlns="http://www.w3.org/2000/svg"
   xmlns:xlink="http://www.w3.org/1999/xlink"
   width="8.5in"
   height="11in"
   viewBox="0 0 765 990"
   id="svg4799"
   version="1.1">
  <title
     id="title5540">Border 18</title>
  <defs
     id="defs4801" />
  <metadata
     id="metadata4804">
    <rdf:RDF>
      <cc:Work
         rdf:about="">
        <dc:format>image/svg+xml</dc:format>
        <dc:type
           rdf:resource="http://purl.org/dc/dcmitype/StillImage" />
        <dc:title>Border 18</dc:title>
        <dc:creator>
          <cc:Agent>
            <dc:title>Arvin61r58</dc:title>
          </cc:Agent>
        </dc:creator>
        <dc:publisher>
          <cc:Agent>
            <dc:title>Openclipart.org</dc:title>
          </cc:Agent>
        </dc:publisher>
        <dc:identifier>https://openclipart.org/</dc:identifier>
        <dc:source>https://openclipart.org/user-detail/Arvin61r58</dc:source>
        <dc:subject>
          <rdf:Bag>
            <rdf:li>frame</rdf:li>
            <rdf:li>border</rdf:li>
            <rdf:li>black and white</rdf:li>
            <rdf:li>monochrome</rdf:li>
          </rdf:Bag>
        </dc:subject>
        <dc:description>decorative frame/border</dc:description>
        <cc:license
           rdf:resource="http://creativecommons.org/publicdomain/zero/1.0/" />
      </cc:Work>
      <cc:License
         rdf:about="http://creativecommons.org/publicdomain/zero/1.0/">
        <cc:permits
           rdf:resource="http://creativecommons.org/ns#Reproduction" />
        <cc:permits
           rdf:resource="http://creativecommons.org/ns#Distribution" />
        <cc:permits
           rdf:resource="http://creativecommons.org/ns#DerivativeWorks" />
      </cc:License>
    </rdf:RDF>
  </metadata>
  <g
     transform="translate(0,-62.362205)"
     id="layer1">
    <g
       transform="matrix(1.0007786,0,0,1.0018972,-50.942229,-30.769736)"
       id="g5531">
      <use
         height="100%"
         width="100%"
         transform="matrix(1,0,0,-1,-0.5686816,1174.0365)"
         id="use5418"
         xlink:href="#g5413"
         y="0"
         x="0" />
      <path
         style="fill:#000000"
         d="m 787.97958,203.73187 c 0,-15.02259 -0.0435,-27.63357 -0.11914,-38.31878 0,0 -2.26172,0 -2.26172,0 -0.0756,10.68521 -0.11914,23.29619 -0.11914,38.31878 0,15.02293 0.0435,27.63342 0.11914,38.31878 0,0 2.26172,0 2.26172,0 0.0756,-10.68536 0.11914,-23.29585 0.11914,-38.31878 0,0 0,0 0,0 m 0,76.63755 c 0,-15.02259 -0.0435,-27.63356 -0.11914,-38.31877 0,0 -2.26172,0 -2.26172,0 -0.0756,10.68521 -0.11914,23.29618 -0.11914,38.31877 0,15.02294 0.0435,27.63343 0.11914,38.31878 0,0 2.26172,0 2.26172,0 0.0756,-10.68535 0.11914,-23.29584 0.11914,-38.31878 0,0 0,0 0,0 m 0,76.63756 c 0,-15.02259 -0.0435,-27.63357 -0.11914,-38.31878 0,0 -2.26172,0 -2.26172,0 -0.0756,10.68521 -0.11914,23.29619 -0.11914,38.31878 0,15.02293 0.0435,27.63342 0.11914,38.31878 0,0 2.26172,0 2.26172,0 0.0756,-10.68536 0.11914,-23.29585 0.11914,-38.31878 0,0 0,0 0,0 m 0,76.63755 c 0,-15.02259 -0.0435,-27.63356 -0.11914,-38.31877 0,0 -2.26172,0 -2.26172,0 -0.0756,10.68521 -0.11914,23.29618 -0.11914,38.31877 0,15.02294 0.0435,27.63343 0.11914,38.31878 0,0 2.26172,0 2.26172,0 0.0756,-10.68535 0.11914,-23.29584 0.11914,-38.31878 0,0 0,0 0,0 m 0,76.63756 c 0,-15.02259 -0.0435,-27.63357 -0.11914,-38.31878 0,0 -2.26172,0 -2.26172,0 -0.0756,10.68521 -0.11914,23.29619 -0.11914,38.31878 0,15.02293 0.0435,27.63342 0.11914,38.31878 0,0 2.26172,0 2.26172,0 0.0756,-10.68536 0.11914,-23.29585 0.11914,-38.31878 0,0 0,0 0,0 m 0,76.63755 c 0,-15.02258 -0.0435,-27.63356 -0.11914,-38.31877 0,0 -2.26172,0 -2.26172,0 -0.0756,10.68521 -0.11914,23.29619 -0.11914,38.31877 0,15.02294 0.0435,27.63343 0.11914,38.31878 0,0 2.26172,0 2.26172,0 0.0756,-10.68535 0.11914,-23.29584 0.11914,-38.31878 0,0 0,0 0,0 m 0,76.63756 c 0,-15.02259 -0.0435,-27.63357 -0.11914,-38.31878 0,0 -2.26172,0 -2.26172,0 -0.0756,10.68521 -0.11914,23.29619 -0.11914,38.31878 0,15.02293 0.0435,27.63342 0.11914,38.31878 0,0 2.26172,0 2.26172,0 0.0756,-10.68536 0.11914,-23.29585 0.11914,-38.31878 0,0 0,0 0,0 m 0,76.63756 c 0,-15.02259 -0.0435,-27.63357 -0.11914,-38.31878 0,0 -2.26172,0 -2.26172,0 -0.0756,10.68521 -0.11914,23.29619 -0.11914,38.31878 0,15.02293 0.0435,27.63342 0.11914,38.31877 0,0 2.26172,0 2.26172,0 0.0756,-10.68535 0.11914,-23.29584 0.11914,-38.31877 0,0 0,0 0,0 m 0,76.63755 c 0,-15.02259 -0.0435,-27.63357 -0.11914,-38.31878 0,0 -2.26172,0 -2.26172,0 -0.0756,10.68521 -0.11914,23.29619 -0.11914,38.31878 0,15.02294 0.0435,27.63342 0.11914,38.31878 0,0 2.26172,0 2.26172,0 0.0756,-10.68536 0.11914,-23.29584 0.11914,-38.31878 0,0 0,0 0,0 m 0,76.63756 c 0,-15.02259 -0.0435,-27.63357 -0.11914,-38.31878 0,0 -2.26172,0 -2.26172,0 -0.0756,10.68521 -0.11914,23.29619 -0.11914,38.31878 0,15.02293 0.0435,27.63342 0.11914,38.31877 0,0 2.26172,0 2.26172,0 0.0756,-10.68535 0.11914,-23.29584 0.11914,-38.31877 0,0 0,0 0,0 m 0,76.63755 c 0,-15.02259 -0.0435,-27.63357 -0.11914,-38.31878 0,0 -2.26172,0 -2.26172,0 -0.0756,10.68521 -0.11914,23.29619 -0.11914,38.31878 0,15.02294 0.0435,27.63347 0.11914,38.31878 0,0 2.26172,0 2.26172,0 0.0756,-10.68531 0.11914,-23.29584 0.11914,-38.31878 0,0 0,0 0,0 m -5,-804.69433 c 0,0 -15,0 -15,0 0,1.52955 -0.8337,2.39492 -2.30664,2.39492 -1.26844,0 -3.32229,1.07629 -4.56445,2.39118 -1.72312,1.82398 -2.65758,2.07191 -3.94336,1.04966 -0.92689,-0.73692 -1.68555,-3.36263 -1.68555,-5.83576 0,0 -2.5,0 -2.5,0 0,7.90325 0.44811,14.36954 0.99609,14.36954 0.54797,0 3.19361,-2.15543 5.87891,-4.78985 5.82118,-5.71085 9.65994,-6.12319 14.61914,-1.57167 3.01034,2.76287 3.50586,4.15005 3.50586,9.81357 0,5.52648 -0.54509,7.13988 -3.35938,9.95391 -3.80365,3.80328 -8.43605,4.34155 -11.85546,1.37708 -4.65364,-4.03447 -1.42811,-12.38811 4.7832,-12.38811 3.67367,0 3.87099,2.09346 0.24609,2.61009 -3.7402,0.53306 -5.82484,3.96861 -4.04883,6.67023 2.07236,3.15244 5.35573,3.22669 8.72071,0.19833 3.93725,-3.54339 4.07477,-10.03806 0.29492,-13.89242 -3.88641,-3.96302 -8.54498,-3.56032 -12.97461,1.12075 -8.59561,9.08351 -8.85951,13.66022 -1.27734,22.15304 2.37386,2.65897 2.37386,2.72961 0,5.38858 -7.58217,8.49282 -7.31827,13.06953 1.27734,22.15304 4.34945,4.59634 8.64467,5.02762 12.80078,1.28727 4.00943,-3.60835 3.95063,-10.39642 -0.12109,-14.06083 -3.36498,-3.02836 -6.64835,-2.95223 -8.72071,0.20021 -1.77601,2.70163 0.30864,6.13531 4.04883,6.66837 3.50673,0.49978 3.483,2.61196 -0.0293,2.61196 -6.29246,0 -9.54618,-7.5976 -5.2168,-12.18043 2.95486,-3.12785 7.85832,-2.70402 11.92578,1.02906 3.01034,2.76287 3.50586,4.15005 3.50586,9.81358 0,5.52647 -0.54509,7.13988 -3.35938,9.9539 -4.78291,4.78245 -8.83195,4.38988 -14.76562,-1.43134 -2.6853,-2.63442 -5.33094,-4.78985 -5.87891,-4.78985 -0.54798,0 -0.99609,6.4663 -0.99609,14.36955 0,0 2.5,0 2.5,0 0,-5.88923 2.54347,-8.05217 5.62891,-4.78612 1.24216,1.31489 3.29601,2.39119 4.56445,2.39119 1.47294,0 2.30664,0.86537 2.30664,2.39493 0,0 15,0 15,0 0,0 0,-38.31878 0,-38.31878 0,0 0,-38.31878 0,-38.31878 0,0 1e-5,0 1e-5,0 m 0,76.63756 c 0,0 -15,0 -15,0 0,1.52955 -0.8337,2.39492 -2.30664,2.39492 -1.26844,0 -3.32229,1.07629 -4.56445,2.39118 -1.72312,1.82398 -2.65758,2.0719 -3.94336,1.04965 -0.92689,-0.73691 -1.68555,-3.36262 -1.68555,-5.83575 0,0 -2.5,0 -2.5,0 0,7.90324 0.44811,14.36954 0.99609,14.36954 0.54797,0 3.19361,-2.15543 5.87891,-4.78985 5.82118,-5.71086 9.65994,-6.1232 14.61914,-1.57167 3.01034,2.76287 3.50586,4.15004 3.50586,9.81357 0,5.52648 -0.54509,7.13988 -3.35938,9.95391 -3.80365,3.80328 -8.43605,4.34154 -11.85546,1.37708 -4.65364,-4.03447 -1.42811,-12.38812 4.7832,-12.38812 3.67367,0 3.87099,2.09346 0.24609,2.61009 -3.7402,0.53307 -5.82484,3.96861 -4.04883,6.67024 2.07236,3.15244 5.35573,3.22669 8.72071,0.19833 3.93725,-3.5434 4.07477,-10.03807 0.29492,-13.89243 -3.88641,-3.96301 -8.54498,-3.56032 -12.97461,1.12075 -8.59561,9.08351 -8.85951,13.66022 -1.27734,22.15304 2.37386,2.65897 2.37386,2.72961 0,5.38858 -7.58217,8.49282 -7.31827,13.06953 1.27734,22.15305 4.34945,4.59633 8.64467,5.02762 12.80078,1.28727 4.00943,-3.60836 3.95063,-10.39642 -0.12109,-14.06083 -3.36498,-3.02836 -6.64835,-2.95223 -8.72071,0.20021 -1.77601,2.70162 0.30864,6.1353 4.04883,6.66836 3.50673,0.49979 3.483,2.61197 -0.0293,2.61197 -6.29246,0 -9.54618,-7.5976 -5.2168,-12.18043 2.95486,-3.12786 7.85832,-2.70402 11.92578,1.02906 3.01034,2.76287 3.50586,4.15005 3.50586,9.81357 0,5.52648 -0.54509,7.13988 -3.35938,9.95391 -4.78291,4.78245 -8.83195,4.38987 -14.76562,-1.43134 -2.6853,-2.63442 -5.33094,-4.78985 -5.87891,-4.78985 -0.54798,0 -0.99609,6.46629 -0.99609,14.36954 0,0 2.5,0 2.5,0 0,-5.88922 2.54347,-8.05216 5.62891,-4.78611 1.24216,1.31489 3.29601,2.39119 4.56445,2.39119 1.47294,0 2.30664,0.86537 2.30664,2.39492 0,0 15,0 15,0 0,0 0,-38.31878 0,-38.31878 0,0 0,-38.31877 0,-38.31877 0,0 1e-5,0 1e-5,0 m 0,76.63755 c 0,0 -15,0 -15,0 0,1.52955 -0.8337,2.39492 -2.30664,2.39492 -1.26844,0 -3.32229,1.07629 -4.56445,2.39118 -1.72312,1.82399 -2.65758,2.07191 -3.94336,1.04966 -0.92689,-0.73692 -1.68555,-3.36263 -1.68555,-5.83576 0,0 -2.5,0 -2.5,0 0,7.90325 0.44811,14.36954 0.99609,14.36954 0.54797,0 3.19361,-2.15543 5.87891,-4.78984 5.82118,-5.71086 9.65994,-6.1232 14.61914,-1.57168 3.01034,2.76287 3.50586,4.15005 3.50586,9.81357 0,5.52648 -0.54509,7.13989 -3.35938,9.95391 -3.80365,3.80328 -8.43605,4.34155 -11.85546,1.37708 -4.65364,-4.03447 -1.42811,-12.38811 4.7832,-12.38811 3.67367,0 3.87099,2.09346 0.24609,2.61009 -3.7402,0.53306 -5.82484,3.96861 -4.04883,6.67023 2.07236,3.15244 5.35573,3.2267 8.72071,0.19833 3.93725,-3.54339 4.07477,-10.03806 0.29492,-13.89242 -3.88641,-3.96302 -8.54498,-3.56032 -12.97461,1.12075 -8.59561,9.08351 -8.85951,13.66022 -1.27734,22.15304 2.37386,2.65897 2.37386,2.72961 0,5.38858 -7.58217,8.49282 -7.31827,13.06953 1.27734,22.15304 4.34945,4.59634 8.64467,5.02763 12.80078,1.28727 4.00943,-3.60835 3.95063,-10.39642 -0.12109,-14.06082 -3.36498,-3.02837 -6.64835,-2.95224 -8.72071,0.2002 -1.77601,2.70163 0.30864,6.13531 4.04883,6.66837 3.50673,0.49978 3.483,2.61196 -0.0293,2.61196 -6.29246,0 -9.54618,-7.5976 -5.2168,-12.18043 2.95486,-3.12785 7.85832,-2.70402 11.92578,1.02906 3.01034,2.76287 3.50586,4.15005 3.50586,9.81358 0,5.52647 -0.54509,7.13988 -3.35938,9.9539 -4.78291,4.78245 -8.83195,4.38988 -14.76562,-1.43134 -2.6853,-2.63441 -5.33094,-4.78985 -5.87891,-4.78985 -0.54798,0 -0.99609,6.4663 -0.99609,14.36955 0,0 2.5,0 2.5,0 0,-5.88923 2.54347,-8.05217 5.62891,-4.78611 1.24216,1.31488 3.29601,2.39118 4.56445,2.39118 1.47294,0 2.30664,0.86537 2.30664,2.39493 0,0 15,0 15,0 0,0 0,-38.31878 0,-38.31878 0,0 0,-38.31878 0,-38.31878 0,0 1e-5,0 1e-5,0 m 0,76.63756 c 0,0 -15,0 -15,0 0,1.52955 -0.8337,2.39492 -2.30664,2.39492 -1.26844,0 -3.32229,1.07629 -4.56445,2.39118 -1.72312,1.82398 -2.65758,2.0719 -3.94336,1.04965 -0.92689,-0.73691 -1.68555,-3.36262 -1.68555,-5.83575 0,0 -2.5,0 -2.5,0 0,7.90324 0.44811,14.36954 0.99609,14.36954 0.54797,0 3.19361,-2.15543 5.87891,-4.78985 5.82118,-5.71086 9.65994,-6.1232 14.61914,-1.57167 3.01034,2.76287 3.50586,4.15005 3.50586,9.81357 0,5.52648 -0.54509,7.13988 -3.35938,9.95391 -3.80365,3.80328 -8.43605,4.34154 -11.85546,1.37708 -4.65364,-4.03447 -1.42811,-12.38812 4.7832,-12.38812 3.67367,0 3.87099,2.09346 0.24609,2.61009 -3.7402,0.53307 -5.82484,3.96861 -4.04883,6.67024 2.07236,3.15244 5.35573,3.22669 8.72071,0.19833 3.93725,-3.5434 4.07477,-10.03806 0.29492,-13.89243 -3.88641,-3.96301 -8.54498,-3.56032 -12.97461,1.12075 -8.59561,9.08352 -8.85951,13.66022 -1.27734,22.15304 2.37386,2.65897 2.37386,2.72961 0,5.38858 -7.58217,8.49282 -7.31827,13.06953 1.27734,22.15305 4.34945,4.59633 8.64467,5.02762 12.80078,1.28727 4.00943,-3.60836 3.95063,-10.39642 -0.12109,-14.06083 -3.36498,-3.02836 -6.64835,-2.95223 -8.72071,0.20021 -1.77601,2.70162 0.30864,6.1353 4.04883,6.66837 3.50673,0.49978 3.483,2.61196 -0.0293,2.61196 -6.29246,0 -9.54618,-7.5976 -5.2168,-12.18043 2.95486,-3.12786 7.85832,-2.70402 11.92578,1.02906 3.01034,2.76287 3.50586,4.15005 3.50586,9.81357 0,5.52648 -0.54509,7.13988 -3.35938,9.95391 -4.78291,4.78245 -8.83195,4.38987 -14.76562,-1.43134 -2.6853,-2.63442 -5.33094,-4.78985 -5.87891,-4.78985 -0.54798,0 -0.99609,6.46629 -0.99609,14.36954 0,0 2.5,0 2.5,0 0,-5.88922 2.54347,-8.05216 5.62891,-4.78611 1.24216,1.31489 3.29601,2.39119 4.56445,2.39119 1.47294,0 2.30664,0.86537 2.30664,2.39492 0,0 15,0 15,0 0,0 0,-38.31878 0,-38.31878 0,0 0,-38.31877 0,-38.31877 0,0 1e-5,0 1e-5,0 m 0,76.63755 c 0,0 -15,0 -15,0 0,1.52955 -0.8337,2.39493 -2.30664,2.39493 -1.26844,0 -3.32229,1.07628 -4.56445,2.39117 -1.72312,1.82399 -2.65758,2.07191 -3.94336,1.04966 -0.92689,-0.73692 -1.68555,-3.36263 -1.68555,-5.83576 0,0 -2.5,0 -2.5,0 0,7.90325 0.44811,14.36954 0.99609,14.36954 0.54797,0 3.19361,-2.15543 5.87891,-4.78984 5.82118,-5.71086 9.65994,-6.1232 14.61914,-1.57168 3.01034,2.76287 3.50586,4.15005 3.50586,9.81358 0,5.52647 -0.54509,7.13988 -3.35938,9.9539 -3.80365,3.80328 -8.43605,4.34155 -11.85546,1.37708 -4.65364,-4.03447 -1.42811,-12.38811 4.7832,-12.38811 3.67367,0 3.87099,2.09346 0.24609,2.61009 -3.7402,0.53306 -5.82484,3.96861 -4.04883,6.67024 2.07236,3.15243 5.35573,3.22669 8.72071,0.19832 3.93725,-3.54339 4.07477,-10.03806 0.29492,-13.89242 -3.88641,-3.96301 -8.54498,-3.56032 -12.97461,1.12075 -8.59561,9.08351 -8.85951,13.66022 -1.27734,22.15304 2.37386,2.65897 2.37386,2.72961 0,5.38858 -7.58217,8.49282 -7.31827,13.06953 1.27734,22.15304 4.34945,4.59634 8.64467,5.02763 12.80078,1.28727 4.00943,-3.60835 3.95063,-10.39642 -0.12109,-14.06082 -3.36498,-3.02836 -6.64835,-2.95224 -8.72071,0.2002 -1.77601,2.70163 0.30864,6.13531 4.04883,6.66837 3.50673,0.49978 3.483,2.61196 -0.0293,2.61196 -6.29246,0 -9.54618,-7.5976 -5.2168,-12.18043 2.95486,-3.12785 7.85832,-2.70402 11.92578,1.02906 3.01034,2.76287 3.50586,4.15005 3.50586,9.81358 0,5.52647 -0.54509,7.13988 -3.35938,9.9539 -4.78291,4.78245 -8.83195,4.38988 -14.76562,-1.43134 -2.6853,-2.63441 -5.33094,-4.78984 -5.87891,-4.78984 -0.54798,0 -0.99609,6.46629 -0.99609,14.36954 0,0 2.5,0 2.5,0 0,-5.88923 2.54347,-8.05217 5.62891,-4.78611 1.24216,1.31489 3.29601,2.39118 4.56445,2.39118 1.47294,0 2.30664,0.86538 2.30664,2.39493 0,0 15,0 15,0 0,0 0,-38.31878 0,-38.31878 0,0 0,-38.31878 0,-38.31878 0,0 1e-5,0 1e-5,0 m 0,76.63756 c 0,0 -15,0 -15,0 0,1.52955 -0.8337,2.39492 -2.30664,2.39492 -1.26844,0 -3.32229,1.07629 -4.56445,2.39118 -1.72312,1.82398 -2.65758,2.0719 -3.94336,1.04966 -0.92689,-0.73692 -1.68555,-3.36263 -1.68555,-5.83576 0,0 -2.5,0 -2.5,0 0,7.90324 0.44811,14.36954 0.99609,14.36954 0.54797,0 3.19361,-2.15543 5.87891,-4.78985 5.82118,-5.71086 9.65994,-6.1232 14.61914,-1.57167 3.01034,2.76287 3.50586,4.15005 3.50586,9.81357 0,5.52648 -0.54509,7.13988 -3.35938,9.95391 -3.80365,3.80328 -8.43605,4.34154 -11.85546,1.37708 -4.65364,-4.03447 -1.42811,-12.38812 4.7832,-12.38812 3.67367,0 3.87099,2.09346 0.24609,2.6101 -3.7402,0.53306 -5.82484,3.9686 -4.04883,6.67023 2.07236,3.15244 5.35573,3.22669 8.72071,0.19833 3.93725,-3.5434 4.07477,-10.03806 0.29492,-13.89243 -3.88641,-3.96301 -8.54498,-3.56032 -12.97461,1.12075 -8.59561,9.08352 -8.85951,13.66023 -1.27734,22.15305 2.37386,2.65896 2.37386,2.72961 0,5.38857 -7.58217,8.49282 -7.31827,13.06953 1.27734,22.15305 4.34945,4.59633 8.64467,5.02762 12.80078,1.28727 4.00943,-3.60836 3.95063,-10.39642 -0.12109,-14.06083 -3.36498,-3.02836 -6.64835,-2.95223 -8.72071,0.20021 -1.77601,2.70163 0.30864,6.1353 4.04883,6.66837 3.50673,0.49978 3.483,2.61196 -0.0293,2.61196 -6.29246,0 -9.54618,-7.5976 -5.2168,-12.18043 2.95486,-3.12786 7.85832,-2.70402 11.92578,1.02906 3.01034,2.76287 3.50586,4.15005 3.50586,9.81357 0,5.52648 -0.54509,7.13988 -3.35938,9.95391 -4.78291,4.78245 -8.83195,4.38987 -14.76562,-1.43134 -2.6853,-2.63442 -5.33094,-4.78985 -5.87891,-4.78985 -0.54798,0 -0.99609,6.46629 -0.99609,14.36954 0,0 2.5,0 2.5,0 0,-5.88922 2.54347,-8.05216 5.62891,-4.78611 1.24216,1.31489 3.29601,2.39119 4.56445,2.39119 1.47294,0 2.30664,0.86537 2.30664,2.39492 0,0 15,0 15,0 0,0 0,-38.31878 0,-38.31878 0,0 0,-38.31877 0,-38.31877 0,0 1e-5,0 1e-5,0 m 0,76.63755 c 0,0 -15,0 -15,0 0,1.52955 -0.8337,2.39493 -2.30664,2.39493 -1.26844,0 -3.32229,1.07628 -4.56445,2.39117 -1.72312,1.82399 -2.65758,2.07191 -3.94336,1.04966 -0.92689,-0.73692 -1.68555,-3.36263 -1.68555,-5.83576 0,0 -2.5,0 -2.5,0 0,7.90325 0.44811,14.36954 0.99609,14.36954 0.54797,0 3.19361,-2.15543 5.87891,-4.78984 5.82118,-5.71086 9.65994,-6.1232 14.61914,-1.57168 3.01034,2.76287 3.50586,4.15005 3.50586,9.81358 0,5.52647 -0.54509,7.13988 -3.35938,9.9539 -3.80365,3.80329 -8.43605,4.34155 -11.85546,1.37708 -4.65364,-4.03447 -1.42811,-12.38811 4.7832,-12.38811 3.67367,0 3.87099,2.09346 0.24609,2.61009 -3.7402,0.53306 -5.82484,3.96861 -4.04883,6.67024 2.07236,3.15243 5.35573,3.22669 8.72071,0.19833 3.93725,-3.5434 4.07477,-10.03807 0.29492,-13.89243 -3.88641,-3.96301 -8.54498,-3.56032 -12.97461,1.12075 -8.59561,9.08351 -8.85951,13.66022 -1.27734,22.15304 2.37386,2.65897 2.37386,2.72961 0,5.38858 -7.58217,8.49282 -7.31827,13.06953 1.27734,22.15304 4.34945,4.59634 8.64467,5.02763 12.80078,1.28727 4.00943,-3.60835 3.95063,-10.39642 -0.12109,-14.06082 -3.36498,-3.02836 -6.64835,-2.95223 -8.72071,0.2002 -1.77601,2.70163 0.30864,6.13531 4.04883,6.66837 3.50673,0.49978 3.483,2.61196 -0.0293,2.61196 -6.29246,0 -9.54618,-7.5976 -5.2168,-12.18043 2.95486,-3.12785 7.85832,-2.70402 11.92578,1.02906 3.01034,2.76287 3.50586,4.15005 3.50586,9.81358 0,5.52648 -0.54509,7.13988 -3.35938,9.9539 -4.78291,4.78246 -8.83195,4.38988 -14.76562,-1.43134 -2.6853,-2.63441 -5.33094,-4.78984 -5.87891,-4.78984 -0.54798,0 -0.99609,6.46629 -0.99609,14.36954 0,0 2.5,0 2.5,0 0,-5.88922 2.54347,-8.05217 5.62891,-4.78611 1.24216,1.31489 3.29601,2.39118 4.56445,2.39118 1.47294,0 2.30664,0.86538 2.30664,2.39493 0,0 15,0 15,0 0,0 0,-38.31878 0,-38.31878 0,0 0,-38.31878 0,-38.31878 0,0 1e-5,0 1e-5,0 m 0,76.63756 c 0,0 -15,0 -15,0 0,1.52955 -0.8337,2.39492 -2.30664,2.39492 -1.26844,0 -3.32229,1.07629 -4.56445,2.39118 -1.72312,1.82398 -2.65758,2.07191 -3.94336,1.04966 -0.92689,-0.73692 -1.68555,-3.36263 -1.68555,-5.83576 0,0 -2.5,0 -2.5,0 0,7.90325 0.44811,14.36954 0.99609,14.36954 0.54797,0 3.19361,-2.15543 5.87891,-4.78985 5.82118,-5.71086 9.65994,-6.12319 14.61914,-1.57167 3.01034,2.76287 3.50586,4.15005 3.50586,9.81357 0,5.52648 -0.54509,7.13988 -3.35938,9.95391 -3.80365,3.80328 -8.43605,4.34154 -11.85546,1.37708 -4.65364,-4.03447 -1.42811,-12.38812 4.7832,-12.38812 3.67367,0 3.87099,2.09346 0.24609,2.6101 -3.7402,0.53306 -5.82484,3.96861 -4.04883,6.67023 2.07236,3.15244 5.35573,3.22669 8.72071,0.19833 3.93725,-3.54339 4.07477,-10.03806 0.29492,-13.89242 -3.88641,-3.96302 -8.54498,-3.56033 -12.97461,1.12074 -8.59561,9.08352 -8.85951,13.66023 -1.27734,22.15305 2.37386,2.65897 2.37386,2.72961 0,5.38857 -7.58217,8.49283 -7.31827,13.06953 1.27734,22.15305 4.34945,4.59634 8.64467,5.02762 12.80078,1.28727 4.00943,-3.60836 3.95063,-10.39642 -0.12109,-14.06083 -3.36498,-3.02836 -6.64835,-2.95223 -8.72071,0.20021 -1.77601,2.70163 0.30864,6.1353 4.04883,6.66837 3.50673,0.49978 3.483,2.61196 -0.0293,2.61196 -6.29246,0 -9.54618,-7.5976 -5.2168,-12.18043 2.95486,-3.12786 7.85832,-2.70402 11.92578,1.02906 3.01034,2.76287 3.50586,4.15005 3.50586,9.81357 0,5.52648 -0.54509,7.13988 -3.35938,9.95391 -4.78291,4.78245 -8.83195,4.38988 -14.76562,-1.43134 -2.6853,-2.63442 -5.33094,-4.78985 -5.87891,-4.78985 -0.54798,0 -0.99609,6.4663 -0.99609,14.36954 0,0 2.5,0 2.5,0 0,-5.88922 2.54347,-8.05216 5.62891,-4.78611 1.24216,1.31489 3.29601,2.39119 4.56445,2.39119 1.47294,0 2.30664,0.86537 2.30664,2.39492 0,0 15,0 15,0 0,0 0,-38.31877 0,-38.31877 0,0 0,-38.31878 0,-38.31878 0,0 1e-5,0 1e-5,0 m 0,76.63755 c 0,0 -15,0 -15,0 0,1.52955 -0.8337,2.39493 -2.30664,2.39493 -1.26844,0 -3.32229,1.07629 -4.56445,2.39117 -1.72312,1.82399 -2.65758,2.07191 -3.94336,1.04966 -0.92689,-0.73692 -1.68555,-3.36262 -1.68555,-5.83576 0,0 -2.5,0 -2.5,0 0,7.90325 0.44811,14.36955 0.99609,14.36955 0.54797,0 3.19361,-2.15544 5.87891,-4.78985 5.82118,-5.71086 9.65994,-6.1232 14.61914,-1.57168 3.01034,2.76287 3.50586,4.15005 3.50586,9.81358 0,5.52648 -0.54509,7.13988 -3.35938,9.9539 -3.80365,3.80329 -8.43605,4.34155 -11.85546,1.37708 -4.65364,-4.03446 -1.42811,-12.38811 4.7832,-12.38811 3.67367,0 3.87099,2.09346 0.24609,2.61009 -3.7402,0.53306 -5.82484,3.96861 -4.04883,6.67024 2.07236,3.15244 5.35573,3.22669 8.72071,0.19833 3.93725,-3.5434 4.07477,-10.03807 0.29492,-13.89243 -3.88641,-3.96301 -8.54498,-3.56032 -12.97461,1.12075 -8.59561,9.08351 -8.85951,13.66022 -1.27734,22.15304 2.37386,2.65897 2.37386,2.72961 0,5.38858 -7.58217,8.49282 -7.31827,13.06953 1.27734,22.15304 4.34945,4.59634 8.64467,5.02763 12.80078,1.28728 4.00943,-3.60836 3.95063,-10.39643 -0.12109,-14.06083 -3.36498,-3.02836 -6.64835,-2.95223 -8.72071,0.2002 -1.77601,2.70163 0.30864,6.13531 4.04883,6.66837 3.50673,0.49978 3.483,2.61196 -0.0293,2.61196 -6.29246,0 -9.54618,-7.59759 -5.2168,-12.18042 2.95486,-3.12786 7.85832,-2.70403 11.92578,1.02906 3.01034,2.76287 3.50586,4.15004 3.50586,9.81357 0,5.52648 -0.54509,7.13988 -3.35938,9.9539 -4.78291,4.78246 -8.83195,4.38988 -14.76562,-1.43134 -2.6853,-2.63441 -5.33094,-4.78984 -5.87891,-4.78984 -0.54798,0 -0.99609,6.46629 -0.99609,14.36954 0,0 2.5,0 2.5,0 0,-5.88922 2.54347,-8.05217 5.62891,-4.78611 1.24216,1.31489 3.29601,2.39119 4.56445,2.39119 1.47294,0 2.30664,0.86537 2.30664,2.39492 0,0 15,0 15,0 0,0 0,-38.31878 0,-38.31878 0,0 0,-38.31878 0,-38.31878 0,0 1e-5,0 1e-5,0 m 0,76.63756 c 0,0 -15,0 -15,0 0,1.52955 -0.8337,2.39492 -2.30664,2.39492 -1.26844,0 -3.32229,1.07629 -4.56445,2.39118 -1.72312,1.82398 -2.65758,2.07191 -3.94336,1.04966 -0.92689,-0.73692 -1.68555,-3.36263 -1.68555,-5.83576 0,0 -2.5,0 -2.5,0 0,7.90325 0.44811,14.36954 0.99609,14.36954 0.54797,0 3.19361,-2.15543 5.87891,-4.78985 5.82118,-5.71085 9.65994,-6.12319 14.61914,-1.57167 3.01034,2.76287 3.50586,4.15005 3.50586,9.81357 0,5.52648 -0.54509,7.13988 -3.35938,9.95391 -3.80365,3.80328 -8.43605,4.34155 -11.85546,1.37708 -4.65364,-4.03447 -1.42811,-12.38812 4.7832,-12.38812 3.67367,0 3.87099,2.09346 0.24609,2.6101 -3.7402,0.53306 -5.82484,3.96861 -4.04883,6.67023 2.07236,3.15244 5.35573,3.22669 8.72071,0.19833 3.93725,-3.54339 4.07477,-10.03806 0.29492,-13.89242 -3.88641,-3.96302 -8.54498,-3.56033 -12.97461,1.12074 -8.59561,9.08352 -8.85951,13.66023 -1.27734,22.15305 2.37386,2.65897 2.37386,2.72961 0,5.38858 -7.58217,8.49282 -7.31827,13.06952 1.27734,22.15304 4.34945,4.59634 8.64467,5.02762 12.80078,1.28727 4.00943,-3.60835 3.95063,-10.39642 -0.12109,-14.06083 -3.36498,-3.02836 -6.64835,-2.95223 -8.72071,0.20021 -1.77601,2.70163 0.30864,6.13531 4.04883,6.66837 3.50673,0.49978 3.483,2.61196 -0.0293,2.61196 -6.29246,0 -9.54618,-7.5976 -5.2168,-12.18043 2.95486,-3.12786 7.85832,-2.70402 11.92578,1.02906 3.01034,2.76287 3.50586,4.15005 3.50586,9.81357 0,5.52648 -0.54509,7.13988 -3.35938,9.95391 -4.78291,4.78245 -8.83195,4.38988 -14.76562,-1.43134 -2.6853,-2.63442 -5.33094,-4.78985 -5.87891,-4.78985 -0.54798,0 -0.99609,6.4663 -0.99609,14.36954 0,0 2.5,0 2.5,0 0,-5.88922 2.54347,-8.05216 5.62891,-4.78611 1.24216,1.31489 3.29601,2.39119 4.56445,2.39119 1.47294,0 2.30664,0.86537 2.30664,2.39492 0,0 15,0 15,0 0,0 0,-38.31877 0,-38.31877 0,0 0,-38.31878 0,-38.31878 0,0 1e-5,0 1e-5,0 m 0,76.63755 c 0,0 -15,0 -15,0 0,1.52956 -0.8337,2.39493 -2.30664,2.39493 -1.26844,0 -3.32229,1.07629 -4.56445,2.39118 -1.72312,1.82398 -2.65758,2.0719 -3.94336,1.04965 -0.92689,-0.73692 -1.68555,-3.36262 -1.68555,-5.83576 0,0 -2.5,0 -2.5,0 0,7.90325 0.44811,14.36955 0.99609,14.36955 0.54797,0 3.19361,-2.15544 5.87891,-4.78985 5.82118,-5.71086 9.65994,-6.1232 14.61914,-1.57167 3.01034,2.76287 3.50586,4.15004 3.50586,9.81357 0,5.52648 -0.54509,7.13988 -3.35938,9.9539 -3.80365,3.80329 -8.43605,4.34155 -11.85546,1.37709 -4.65364,-4.03447 -1.42811,-12.38812 4.7832,-12.38812 3.67367,0 3.87099,2.09346 0.24609,2.61009 -3.7402,0.53306 -5.82484,3.96861 -4.04883,6.67024 2.07236,3.15244 5.35573,3.22669 8.72071,0.19833 3.93725,-3.5434 4.07477,-10.03807 0.29492,-13.89243 -3.88641,-3.96301 -8.54498,-3.56032 -12.97461,1.12075 -8.59561,9.08351 -8.85951,13.66022 -1.27734,22.15304 2.37386,2.65897 2.37386,2.72961 0,5.38858 -7.58217,8.49282 -7.31827,13.06953 1.27734,22.15304 4.34945,4.59634 8.64467,5.02764 12.80078,1.28728 4.00943,-3.60836 3.95063,-10.39642 -0.12109,-14.06083 -3.36498,-3.02836 -6.64835,-2.95223 -8.72071,0.20021 -1.77601,2.70162 0.30864,6.1353 4.04883,6.66836 3.50673,0.49979 3.483,2.61196 -0.0293,2.61196 -6.29246,0 -9.54618,-7.59759 -5.2168,-12.18042 2.95486,-3.12786 7.85832,-2.70403 11.92578,1.02906 3.01034,2.76287 3.50586,4.15004 3.50586,9.81357 0,5.52648 -0.54509,7.13985 -3.35938,9.95396 -4.78291,4.7824 -8.83195,4.3898 -14.76562,-1.43141 -2.6853,-2.6344 -5.33094,-4.78983 -5.87891,-4.78983 -0.54798,0 -0.99609,6.46634 -0.99609,14.36954 0,0 2.5,0 2.5,0 0,-5.8892 2.54347,-8.0521 5.62891,-4.7861 1.24216,1.3149 3.29601,2.3912 4.56445,2.3912 1.47294,0 2.30664,0.8653 2.30664,2.3949 0,0 15,0 15,0 0,0 0,-38.31878 0,-38.31878 0,0 0,-38.31878 0,-38.31878 0,0 1e-5,0 1e-5,0 m -27.5,-728.05677 c 0,-1.31721 -0.5625,-2.39493 -1.25,-2.39493 -0.6875,0 -1.25,1.07772 -1.25,2.39493 0,1.31721 0.5625,2.39492 1.25,2.39492 0.6875,0 1.25,-1.07771 1.25,-2.39492 0,0 0,0 0,0 m 0,76.63755 c 0,-1.31721 -0.5625,-2.39492 -1.25,-2.39492 -0.6875,0 -1.25,1.07771 -1.25,2.39492 0,1.31721 0.5625,2.39493 1.25,2.39493 0.6875,0 1.25,-1.07772 1.25,-2.39493 0,0 0,0 0,0 m 0,76.63756 c 0,-1.31721 -0.5625,-2.39493 -1.25,-2.39493 -0.6875,0 -1.25,1.07772 -1.25,2.39493 0,1.31721 0.5625,2.39492 1.25,2.39492 0.6875,0 1.25,-1.07771 1.25,-2.39492 0,0 0,0 0,0 m 0,76.63755 c 0,-1.3172 -0.5625,-2.39492 -1.25,-2.39492 -0.6875,0 -1.25,1.07772 -1.25,2.39492 0,1.31721 0.5625,2.39493 1.25,2.39493 0.6875,0 1.25,-1.07772 1.25,-2.39493 0,0 0,0 0,0 m 0,76.63756 c 0,-1.31721 -0.5625,-2.39492 -1.25,-2.39492 -0.6875,0 -1.25,1.07771 -1.25,2.39492 0,1.31721 0.5625,2.39492 1.25,2.39492 0.6875,0 1.25,-1.07771 1.25,-2.39492 0,0 0,0 0,0 m 0,76.63755 c 0,-1.3172 -0.5625,-2.39492 -1.25,-2.39492 -0.6875,0 -1.25,1.07772 -1.25,2.39492 0,1.31721 0.5625,2.39493 1.25,2.39493 0.6875,0 1.25,-1.07772 1.25,-2.39493 0,0 0,0 0,0 m 0,76.63756 c 0,-1.31721 -0.5625,-2.39492 -1.25,-2.39492 -0.6875,0 -1.25,1.07771 -1.25,2.39492 0,1.31721 0.5625,2.39492 1.25,2.39492 0.6875,0 1.25,-1.07771 1.25,-2.39492 0,0 0,0 0,0 m 0,76.63756 c 0,-1.31721 -0.5625,-2.39493 -1.25,-2.39493 -0.6875,0 -1.25,1.07772 -1.25,2.39493 0,1.3172 0.5625,2.39492 1.25,2.39492 0.6875,0 1.25,-1.07772 1.25,-2.39492 0,0 0,0 0,0 m 0,76.63755 c 0,-1.31721 -0.5625,-2.39492 -1.25,-2.39492 -0.6875,0 -1.25,1.07771 -1.25,2.39492 0,1.31721 0.5625,2.39492 1.25,2.39492 0.6875,0 1.25,-1.07771 1.25,-2.39492 0,0 0,0 0,0 m 0,76.63756 c 0,-1.31721 -0.5625,-2.39493 -1.25,-2.39493 -0.6875,0 -1.25,1.07772 -1.25,2.39493 0,1.3172 0.5625,2.39492 1.25,2.39492 0.6875,0 1.25,-1.07772 1.25,-2.39492 0,0 0,0 0,0 m 0,76.63755 c 0,-1.31721 -0.5625,-2.39492 -1.25,-2.39492 -0.6875,0 -1.25,1.07771 -1.25,2.39492 0,1.31721 0.5625,2.39493 1.25,2.39493 0.6875,0 1.25,-1.07772 1.25,-2.39493 0,0 0,0 0,0 m -5,-766.37555 c 0,-15.02259 -0.0435,-27.63357 -0.11914,-38.31878 0,0 -2.26171,0 -2.26171,0 -0.0756,10.68521 -0.11914,23.29619 -0.11914,38.31878 0,15.02293 0.0435,27.63342 0.11914,38.31878 0,0 2.26171,0 2.26171,0 0.0756,-10.68536 0.11914,-23.29585 0.11914,-38.31878 0,0 0,0 0,0 m 0,76.63755 c 0,-15.02259 -0.0435,-27.63356 -0.11914,-38.31877 0,0 -2.26171,0 -2.26171,0 -0.0756,10.68521 -0.11914,23.29618 -0.11914,38.31877 0,15.02294 0.0435,27.63343 0.11914,38.31878 0,0 2.26171,0 2.26171,0 0.0756,-10.68535 0.11914,-23.29584 0.11914,-38.31878 0,0 0,0 0,0 m 0,76.63756 c 0,-15.02259 -0.0435,-27.63357 -0.11914,-38.31878 0,0 -2.26171,0 -2.26171,0 -0.0756,10.68521 -0.11914,23.29619 -0.11914,38.31878 0,15.02293 0.0435,27.63342 0.11914,38.31878 0,0 2.26171,0 2.26171,0 0.0756,-10.68536 0.11914,-23.29585 0.11914,-38.31878 0,0 0,0 0,0 m 0,76.63755 c 0,-15.02259 -0.0435,-27.63356 -0.11914,-38.31877 0,0 -2.26171,0 -2.26171,0 -0.0756,10.68521 -0.11914,23.29618 -0.11914,38.31877 0,15.02294 0.0435,27.63343 0.11914,38.31878 0,0 2.26171,0 2.26171,0 0.0756,-10.68535 0.11914,-23.29584 0.11914,-38.31878 0,0 0,0 0,0 m 0,76.63756 c 0,-15.02259 -0.0435,-27.63357 -0.11914,-38.31878 0,0 -2.26171,0 -2.26171,0 -0.0756,10.68521 -0.11914,23.29619 -0.11914,38.31878 0,15.02293 0.0435,27.63342 0.11914,38.31878 0,0 2.26171,0 2.26171,0 0.0756,-10.68536 0.11914,-23.29585 0.11914,-38.31878 0,0 0,0 0,0 m 0,76.63755 c 0,-15.02258 -0.0435,-27.63356 -0.11914,-38.31877 0,0 -2.26171,0 -2.26171,0 -0.0756,10.68521 -0.11914,23.29619 -0.11914,38.31877 0,15.02294 0.0435,27.63343 0.11914,38.31878 0,0 2.26171,0 2.26171,0 0.0756,-10.68535 0.11914,-23.29584 0.11914,-38.31878 0,0 0,0 0,0 m 0,76.63756 c 0,-15.02259 -0.0435,-27.63357 -0.11914,-38.31878 0,0 -2.26171,0 -2.26171,0 -0.0756,10.68521 -0.11914,23.29619 -0.11914,38.31878 0,15.02293 0.0435,27.63342 0.11914,38.31878 0,0 2.26171,0 2.26171,0 0.0756,-10.68536 0.11914,-23.29585 0.11914,-38.31878 0,0 0,0 0,0 m 0,76.63756 c 0,-15.02259 -0.0435,-27.63357 -0.11914,-38.31878 0,0 -2.26171,0 -2.26171,0 -0.0756,10.68521 -0.11914,23.29619 -0.11914,38.31878 0,15.02293 0.0435,27.63342 0.11914,38.31877 0,0 2.26171,0 2.26171,0 0.0756,-10.68535 0.11914,-23.29584 0.11914,-38.31877 0,0 0,0 0,0 m 0,76.63755 c 0,-15.02259 -0.0435,-27.63357 -0.11914,-38.31878 0,0 -2.26171,0 -2.26171,0 -0.0756,10.68521 -0.11914,23.29619 -0.11914,38.31878 0,15.02294 0.0435,27.63342 0.11914,38.31878 0,0 2.26171,0 2.26171,0 0.0756,-10.68536 0.11914,-23.29584 0.11914,-38.31878 0,0 0,0 0,0 m 0,76.63756 c 0,-15.02259 -0.0435,-27.63357 -0.11914,-38.31878 0,0 -2.26171,0 -2.26171,0 -0.0756,10.68521 -0.11914,23.29619 -0.11914,38.31878 0,15.02293 0.0435,27.63342 0.11914,38.31877 0,0 2.26171,0 2.26171,0 0.0756,-10.68535 0.11914,-23.29584 0.11914,-38.31877 0,0 0,0 0,0 m 0,76.63755 c 0,-15.02259 -0.0435,-27.63357 -0.11914,-38.31878 0,0 -2.26171,0 -2.26171,0 -0.0756,10.68521 -0.11914,23.29619 -0.11914,38.31878 0,15.02294 0.0435,27.63347 0.11914,38.31878 0,0 2.26171,0 2.26171,0 0.0756,-10.68531 0.11914,-23.29584 0.11914,-38.31878 0,0 0,0 0,0"
         id="path1578" />
      <g
         transform="translate(66.673624,-98.21704)"
         id="g5413">
        <path
           style="fill:#000000"
           d="m 95.959605,218.63003 c -15.163985,0 -27.89366,0.0435 -38.679443,0.11913 0,0 0,2.26172 0,2.26172 10.785783,0.0756 23.515458,0.11914 38.679443,0.11914 15.164335,0 27.893505,-0.0435 38.679435,-0.11914 0,0 0,-2.26172 0,-2.26172 -10.78593,-0.0756 -23.5151,-0.11913 -38.679435,-0.11913 0,0 0,0 0,0 m 77.358885,0 c -15.16399,0 -27.89366,0.0435 -38.67945,0.11913 0,0 0,2.26172 0,2.26172 10.78579,0.0756 23.51546,0.11914 38.67945,0.11914 15.16433,0 27.89352,-0.0435 38.67945,-0.11914 0,0 0,-2.26172 0,-2.26172 -10.78593,-0.0756 -23.51512,-0.11913 -38.67945,-0.11913 0,0 0,0 0,0 m 77.35889,0 c -15.16398,0 -27.89366,0.0435 -38.67944,0.11913 0,0 0,2.26172 0,2.26172 10.78578,0.0756 23.51546,0.11914 38.67944,0.11914 15.16434,0 27.89353,-0.0435 38.67945,-0.11914 0,0 0,-2.26172 0,-2.26172 -10.78593,-0.0756 -23.51511,-0.11913 -38.67945,-0.11913 0,0 0,0 0,0 m 77.35889,0 c -15.16398,0 -27.89366,0.0435 -38.67944,0.11913 0,0 0,2.26172 0,2.26172 10.78578,0.0756 23.51546,0.11914 38.67944,0.11914 15.16434,0 27.89353,-0.0435 38.67945,-0.11914 0,0 0,-2.26172 0,-2.26172 -10.78593,-0.0756 -23.51511,-0.11913 -38.67945,-0.11913 0,0 0,0 0,0 m 77.3589,0 c -15.16399,0 -27.89367,0.0435 -38.67945,0.11913 0,0 0,2.26172 0,2.26172 10.78578,0.0756 23.51546,0.11914 38.67945,0.11914 15.16433,0 27.89352,-0.0435 38.67944,-0.11914 0,0 0,-2.26172 0,-2.26172 -10.78592,-0.0756 -23.51511,-0.11913 -38.67944,-0.11913 0,0 0,0 0,0 m 77.35889,0 c -15.16399,0 -27.89366,0.0435 -38.67945,0.11913 0,0 0,2.26172 0,2.26172 10.78579,0.0756 23.51546,0.11914 38.67945,0.11914 15.16434,0 27.89352,-0.0435 38.67945,-0.11914 0,0 0,-2.26172 0,-2.26172 -10.78593,-0.0756 -23.51511,-0.11913 -38.67945,-0.11913 0,0 0,0 0,0 m 77.35889,0 c -15.16398,0 -27.89366,0.0435 -38.67944,0.11913 0,0 0,2.26172 0,2.26172 10.78578,0.0756 23.51546,0.11914 38.67944,0.11914 15.16434,0 27.89352,-0.0435 38.67945,-0.11914 0,0 0,-2.26172 0,-2.26172 -10.78593,-0.0756 -23.51511,-0.11913 -38.67945,-0.11913 0,0 0,0 0,0 m 77.3589,0 c -15.16399,0 -27.89367,0.0435 -38.67945,0.11913 0,0 0,2.26172 0,2.26172 10.78578,0.0756 23.51546,0.11914 38.67945,0.11914 15.16433,0 27.89351,-0.0435 38.67944,-0.11914 0,0 0,-2.26172 0,-2.26172 -10.78593,-0.0756 -23.51511,-0.11913 -38.67944,-0.11913 0,0 0,0 0,0 m -580.191689,5 c 0,0 0,15 0,15 1.543948,0 2.417466,0.83369 2.417466,2.30663 0,1.26844 1.086418,3.3223 2.413684,4.56445 1.841151,1.72312 2.091407,2.65758 1.059537,3.94336 -0.743855,0.92689 -3.394277,1.68556 -5.890687,1.68556 0,0 0,2.5 0,2.5 7.977636,0 14.504793,-0.44812 14.504793,-0.9961 0,-0.54796 -2.175719,-3.19361 -4.834931,-5.8789 -5.764611,-5.82118 -6.180831,-9.65995 -1.586467,-14.61914 2.788875,-3.01034 4.18911,-3.50586 9.905942,-3.50586 5.578491,0 7.207081,0.54508 10.047591,3.35937 3.839076,3.80365 4.382406,8.43605 1.390036,11.85546 -4.072436,4.65364 -12.504706,1.42811 -12.504706,-4.7832 0,-3.67366 2.113165,-3.87099 2.63466,-0.24609 0.53808,3.7402 4.00596,5.82484 6.73302,4.04883 3.182106,-2.07236 3.257056,-5.35573 0.20019,-8.72071 -3.57674,-3.93725 -10.132542,-4.07477 -14.023181,-0.29491 -4.000316,3.88641 -3.593833,8.54498 1.131296,12.97461 9.169015,8.59561 13.788795,8.85951 22.361551,1.27734 2.68399,-2.37386 2.7553,-2.37386 5.4393,0 8.572745,7.58217 13.192535,7.31827 22.361545,-1.27734 4.6396,-4.34945 5.07495,-8.64467 1.29939,-12.80078 -3.64232,-4.00943 -10.49428,-3.95063 -14.19317,0.12109 -3.05687,3.36498 -2.98002,6.64835 0.20209,8.72071 2.72705,1.77601 6.19305,-0.30864 6.73113,-4.04883 0.50449,-3.50673 2.63655,-3.483 2.63655,0.0293 0,6.29246 -7.66911,9.54618 -12.29508,5.2168 -3.1573,-2.95486 -2.72947,-7.85832 1.03875,-11.92578 2.78887,-3.01034 4.18911,-3.50586 9.90594,-3.50586 5.57849,0 7.20708,0.54508 10.04759,3.35937 4.82747,4.78291 4.4312,8.83196 -1.44481,14.76563 -2.65921,2.6853 -4.83493,5.33094 -4.83493,5.8789 0,0.54798 6.52716,0.9961 14.50479,0.9961 0,0 0,-2.5 0,-2.5 -5.94465,0 -8.12795,-2.54348 -4.83116,-5.62891 1.32727,-1.24216 2.4137,-3.29601 2.4137,-4.56445 0,-1.47294 0.87351,-2.30664 2.41746,-2.30664 0,0 0,-15 0,-15 0,0 -38.679435,0 -38.679435,0 0,0 -38.679444,0 -38.679444,0 0,0 0,-1e-5 0,-1e-5 m 77.358879,0 c 0,0 0,15 0,15 1.54395,0 2.41747,0.8337 2.41747,2.30664 0,1.26844 1.08642,3.32229 2.41368,4.56445 1.84115,1.72312 2.09141,2.65758 1.05954,3.94336 -0.74385,0.92689 -3.39428,1.68555 -5.89069,1.68555 0,0 0,2.5 0,2.5 7.97764,0 14.5048,-0.44811 14.5048,-0.99609 0,-0.54797 -2.17572,-3.19361 -4.83494,-5.87891 -5.76461,-5.82118 -6.18083,-9.65994 -1.58646,-14.61914 2.78887,-3.01034 4.18911,-3.50586 9.90594,-3.50586 5.57849,0 7.20708,0.54509 10.0476,3.35938 3.83908,3.80365 4.38241,8.43605 1.39004,11.85546 -4.07245,4.65364 -12.50472,1.42811 -12.50472,-4.7832 0,-3.67367 2.11317,-3.87099 2.63466,-0.24609 0.53808,3.74019 4.00596,5.82484 6.73302,4.04883 3.18211,-2.07236 3.25706,-5.35573 0.20019,-8.72071 -3.57674,-3.93725 -10.13254,-4.07477 -14.02318,-0.29492 -4.00032,3.88641 -3.59383,8.54498 1.1313,12.97461 9.16901,8.59561 13.78879,8.85951 22.36155,1.27734 2.684,-2.37386 2.7553,-2.37386 5.4393,0 8.57276,7.58217 13.19254,7.31827 22.36155,-1.27734 4.6396,-4.34945 5.07495,-8.64467 1.29939,-12.80078 -3.64232,-4.00943 -10.49427,-3.95063 -14.19317,0.12109 -3.05687,3.36498 -2.98002,6.64835 0.20209,8.72071 2.72706,1.77601 6.19305,-0.30864 6.73113,-4.04883 0.50449,-3.50673 2.63655,-3.483 2.63655,0.0293 0,6.29246 -7.66911,9.54618 -12.29508,5.2168 -3.15729,-2.95486 -2.72947,-7.85832 1.03875,-11.92578 2.78887,-3.01034 4.18911,-3.50586 9.90594,-3.50586 5.5785,0 7.20708,0.54509 10.0476,3.35938 4.82746,4.78291 4.43119,8.83195 -1.44482,14.76562 -2.65921,2.6853 -4.83493,5.33094 -4.83493,5.87891 0,0.54798 6.52716,0.99609 14.5048,0.99609 0,0 0,-2.5 0,-2.5 -5.94466,0 -8.12796,-2.54347 -4.83116,-5.62891 1.32726,-1.24216 2.41369,-3.29601 2.41369,-4.56445 0,-1.47294 0.87352,-2.30664 2.41747,-2.30664 0,0 0,-15 0,-15 0,0 -38.67945,0 -38.67945,0 0,0 -38.67945,0 -38.67945,0 0,0 0,-1e-5 0,-1e-5 m 77.3589,0 c 0,0 0,15 0,15 1.54394,0 2.41746,0.8337 2.41746,2.30664 0,1.26844 1.08642,3.32229 2.41369,4.56445 1.84115,1.72312 2.0914,2.65758 1.05953,3.94336 -0.74385,0.92689 -3.39427,1.68555 -5.89068,1.68555 0,0 0,2.5 0,2.5 7.97763,0 14.50479,-0.44811 14.50479,-0.99609 0,-0.54797 -2.17572,-3.19361 -4.83493,-5.87891 -5.76461,-5.82118 -6.18083,-9.65994 -1.58647,-14.61914 2.78888,-3.01034 4.18911,-3.50586 9.90594,-3.50586 5.5785,0 7.20709,0.54509 10.0476,3.35938 3.83908,3.80365 4.38241,8.43605 1.39004,11.85546 -4.07244,4.65364 -12.50472,1.42811 -12.50472,-4.7832 0,-3.67367 2.11317,-3.87099 2.63466,-0.24609 0.53808,3.7402 4.00597,5.82484 6.73302,4.04883 3.18211,-2.07236 3.25706,-5.35573 0.2002,-8.72071 -3.57675,-3.93725 -10.13255,-4.07477 -14.02319,-0.29492 -4.00031,3.88641 -3.59383,8.54498 1.1313,12.97461 9.16901,8.59561 13.7888,8.85951 22.36155,1.27734 2.684,-2.37386 2.7553,-2.37386 5.4393,0 8.57276,7.58217 13.19254,7.31827 22.36156,-1.27734 4.6396,-4.34945 5.07494,-8.64467 1.29938,-12.80078 -3.64231,-4.00943 -10.49427,-3.95063 -14.19317,0.12109 -3.05686,3.36498 -2.98002,6.64835 0.20209,8.72071 2.72706,1.77601 6.19306,-0.30864 6.73113,-4.04883 0.50449,-3.50673 2.63655,-3.483 2.63655,0.0293 0,6.29246 -7.66911,9.54618 -12.29507,5.2168 -3.1573,-2.95486 -2.72948,-7.85832 1.03874,-11.92578 2.78888,-3.01034 4.18911,-3.50586 9.90594,-3.50586 5.5785,0 7.20709,0.54509 10.0476,3.35938 4.82747,4.78291 4.43119,8.83195 -1.44481,14.76562 -2.65922,2.6853 -4.83493,5.33094 -4.83493,5.87891 0,0.54798 6.52715,0.99609 14.50479,0.99609 0,0 0,-2.5 0,-2.5 -5.94466,0 -8.12796,-2.54347 -4.83116,-5.62891 1.32726,-1.24216 2.41369,-3.29601 2.41369,-4.56445 0,-1.47294 0.87352,-2.30664 2.41747,-2.30664 0,0 0,-15 0,-15 0,0 -38.67945,0 -38.67945,0 0,0 -38.67944,0 -38.67944,0 0,0 0,-1e-5 0,-1e-5 m 77.35889,0 c 0,0 0,15 0,15 1.54395,0 2.41746,0.8337 2.41746,2.30664 0,1.26844 1.08642,3.32229 2.41369,4.56445 1.84115,1.72312 2.09141,2.65758 1.05953,3.94336 -0.74385,0.92689 -3.39427,1.68555 -5.89068,1.68555 0,0 0,2.5 0,2.5 7.97763,0 14.50479,-0.44811 14.50479,-0.99609 0,-0.54797 -2.17572,-3.19361 -4.83493,-5.87891 -5.76461,-5.82118 -6.18083,-9.65994 -1.58647,-14.61914 2.78888,-3.01034 4.18911,-3.50586 9.90595,-3.50586 5.57849,0 7.20708,0.54509 10.04759,3.35938 3.83908,3.80365 4.38241,8.43605 1.39004,11.85546 -4.07244,4.65364 -12.50471,1.42811 -12.50471,-4.7832 0,-3.67367 2.11316,-3.87099 2.63466,-0.24609 0.53808,3.7402 4.00596,5.82484 6.73301,4.04883 3.18211,-2.07236 3.25707,-5.35573 0.2002,-8.72071 -3.57675,-3.93725 -10.13255,-4.07477 -14.02319,-0.29492 -4.00031,3.88641 -3.59383,8.54498 1.1313,12.97461 9.16901,8.59561 13.7888,8.85951 22.36156,1.27735 2.68399,-2.37387 2.7553,-2.37387 5.43929,0 8.57276,7.58216 13.19255,7.31827 22.36156,-1.27735 4.6396,-4.34944 5.07494,-8.64466 1.29939,-12.80078 -3.64232,-4.00943 -10.49428,-3.95062 -14.19318,0.1211 -3.05686,3.36498 -2.98001,6.64834 0.2021,8.72071 2.72705,1.77601 6.19305,-0.30864 6.73113,-4.04884 0.50448,-3.50673 2.63654,-3.483 2.63654,0.0293 0,6.29247 -7.66911,9.54618 -12.29507,5.21681 -3.1573,-2.95486 -2.72947,-7.85832 1.03875,-11.92578 2.78887,-3.01035 4.18911,-3.50587 9.90594,-3.50587 5.57849,0 7.20708,0.54509 10.04759,3.35938 4.82747,4.78291 4.4312,8.83195 -1.44481,14.76562 -2.65921,2.68531 -4.83493,5.33094 -4.83493,5.87891 0,0.54798 6.52716,0.99609 14.50479,0.99609 0,0 0,-2.5 0,-2.5 -5.94465,0 -8.12795,-2.54347 -4.83116,-5.62891 1.32727,-1.24216 2.4137,-3.296 2.4137,-4.56444 0,-1.47294 0.87351,-2.30664 2.41746,-2.30664 0,0 0,-15 0,-15 0,0 -38.67945,0 -38.67945,0 0,0 -38.67944,0 -38.67944,0 0,0 0,-1e-5 0,-1e-5 m 77.35889,0 c 0,0 0,15 0,15 1.54395,0 2.41747,0.8337 2.41747,2.30664 0,1.26843 1.08642,3.32229 2.41368,4.56444 1.84115,1.72312 2.09141,2.65758 1.05954,3.94337 -0.74386,0.92688 -3.39428,1.68555 -5.89069,1.68555 0,0 0,2.5 0,2.5 7.97764,0 14.50479,-0.44812 14.50479,-0.99609 0,-0.54797 -2.17572,-3.19362 -4.83493,-5.87891 -5.76461,-5.82118 -6.18083,-9.65994 -1.58646,-14.61914 2.78887,-3.01034 4.18911,-3.50586 9.90594,-3.50586 5.57849,0 7.20708,0.54509 10.04759,3.35938 3.83908,3.80365 4.38241,8.43604 1.39005,11.85545 -4.07245,4.65364 -12.50472,1.42811 -12.50472,-4.78319 0,-3.67367 2.11316,-3.871 2.63466,-0.2461 0.53808,3.7402 4.00596,5.82484 6.73302,4.04884 3.18211,-2.07237 3.25706,-5.35573 0.20019,-8.72071 -3.57674,-3.93726 -10.13254,-4.07477 -14.02318,-0.29492 -4.00032,3.88641 -3.59384,8.54498 1.13129,12.97461 9.16902,8.59561 13.7888,8.85951 22.36156,1.27734 2.68399,-2.37386 2.7553,-2.37386 5.4393,0 8.57275,7.58217 13.19254,7.31827 22.36155,-1.27734 4.6396,-4.34945 5.07495,-8.64467 1.29939,-12.80078 -3.64232,-4.00943 -10.49428,-3.95063 -14.19317,0.12109 -3.05687,3.36498 -2.98002,6.64835 0.20209,8.72071 2.72705,1.77601 6.19305,-0.30864 6.73113,-4.04883 0.50449,-3.50673 2.63655,-3.483 2.63655,0.0293 0,6.29246 -7.66911,9.54618 -12.29508,5.2168 -3.15729,-2.95486 -2.72947,-7.85832 1.03875,-11.92578 2.78887,-3.01034 4.18911,-3.50586 9.90594,-3.50586 5.57849,0 7.20708,0.54509 10.0476,3.35938 4.82746,4.7829 4.43119,8.83195 -1.44482,14.76562 -2.65921,2.6853 -4.83493,5.33094 -4.83493,5.87891 0,0.54798 6.52716,0.99609 14.50479,0.99609 0,0 0,-2.5 0,-2.5 -5.94465,0 -8.12795,-2.54347 -4.83116,-5.62891 1.32727,-1.24216 2.4137,-3.29601 2.4137,-4.56445 0,-1.47294 0.87352,-2.30664 2.41746,-2.30664 0,0 0,-15 0,-15 0,0 -38.67944,0 -38.67944,0 0,0 -38.67945,0 -38.67945,0 0,0 0,-1e-5 0,-1e-5 m 77.35889,0 c 0,0 0,15 0,15 1.54395,0 2.41747,0.8337 2.41747,2.30664 0,1.26844 1.08642,3.32229 2.41368,4.56445 1.84116,1.72312 2.09141,2.65758 1.05954,3.94336 -0.74385,0.92689 -3.39428,1.68555 -5.89069,1.68555 0,0 0,2.5 0,2.5 7.97764,0 14.5048,-0.44811 14.5048,-0.99609 0,-0.54797 -2.17572,-3.19361 -4.83493,-5.87891 -5.76462,-5.82118 -6.18083,-9.65994 -1.58647,-14.61914 2.78887,-3.01034 4.18911,-3.50586 9.90594,-3.50586 5.5785,0 7.20708,0.54509 10.0476,3.35938 3.83908,3.80365 4.38241,8.43605 1.39004,11.85546 -4.07244,4.65364 -12.50472,1.42811 -12.50472,-4.7832 0,-3.67367 2.11317,-3.87099 2.63466,-0.24609 0.53808,3.7402 4.00596,5.82484 6.73302,4.04883 3.18211,-2.07236 3.25706,-5.35573 0.2002,-8.72071 -3.57675,-3.93725 -10.13255,-4.07477 -14.02319,-0.29492 -4.00031,3.88641 -3.59383,8.54498 1.1313,12.97461 9.16901,8.59561 13.78879,8.85951 22.36155,1.27734 2.684,-2.37386 2.7553,-2.37386 5.4393,0 8.57276,7.58217 13.19254,7.31827 22.36155,-1.27734 4.6396,-4.34945 5.07495,-8.64467 1.29939,-12.80078 -3.64232,-4.00943 -10.49427,-3.95063 -14.19317,0.12109 -3.05687,3.36498 -2.98002,6.64835 0.20209,8.72071 2.72706,1.77601 6.19305,-0.30864 6.73113,-4.04883 0.50449,-3.50673 2.63655,-3.483 2.63655,0.0293 0,6.29246 -7.66911,9.54618 -12.29508,5.2168 -3.15729,-2.95486 -2.72947,-7.85832 1.03875,-11.92578 2.78888,-3.01034 4.18911,-3.50586 9.90594,-3.50586 5.5785,0 7.20709,0.54509 10.0476,3.35938 4.82746,4.78291 4.43119,8.83195 -1.44481,14.76562 -2.65922,2.6853 -4.83494,5.33094 -4.83494,5.87891 0,0.54798 6.52716,0.99609 14.5048,0.99609 0,0 0,-2.5 0,-2.5 -5.94466,0 -8.12796,-2.54347 -4.83116,-5.62891 1.32726,-1.24216 2.41369,-3.29601 2.41369,-4.56445 0,-1.47294 0.87352,-2.30664 2.41747,-2.30664 0,0 0,-15 0,-15 0,0 -38.67944,0 -38.67944,0 0,0 -38.67945,0 -38.67945,0 0,0 0,-1e-5 0,-1e-5 m 77.3589,0 c 0,0 0,15 0,15 1.54394,0 2.41746,0.8337 2.41746,2.30664 0,1.26844 1.08642,3.32229 2.41369,4.56445 1.84114,1.72312 2.0914,2.65758 1.05953,3.94336 -0.74385,0.92689 -3.39427,1.68555 -5.89068,1.68555 0,0 0,2.5 0,2.5 7.97763,0 14.50479,-0.44811 14.50479,-0.99609 0,-0.54797 -2.17572,-3.19361 -4.83493,-5.87891 -5.76461,-5.82118 -6.18083,-9.65994 -1.58647,-14.61914 2.78888,-3.01034 4.18911,-3.50586 9.90594,-3.50586 5.5785,0 7.20709,0.54509 10.0476,3.35938 3.83907,3.80365 4.38241,8.43605 1.39004,11.85546 -4.07245,4.65364 -12.50472,1.42811 -12.50472,-4.7832 0,-3.67367 2.11316,-3.87099 2.63466,-0.24609 0.53808,3.7402 4.00597,5.82484 6.73302,4.04883 3.18211,-2.07236 3.25706,-5.35573 0.2002,-8.72071 -3.57675,-3.93725 -10.13255,-4.07477 -14.02319,-0.29492 -4.00031,3.88641 -3.59383,8.54498 1.1313,12.97461 9.16901,8.59561 13.7888,8.85951 22.36155,1.27734 2.684,-2.37386 2.75531,-2.37386 5.4393,0 8.57276,7.58217 13.19255,7.31827 22.36156,-1.27734 4.6396,-4.34945 5.07494,-8.64467 1.29938,-12.80078 -3.64231,-4.00943 -10.49427,-3.95063 -14.19317,0.12109 -3.05686,3.36498 -2.98002,6.64835 0.20209,8.72071 2.72706,1.77601 6.19306,-0.30864 6.73114,-4.04883 0.50448,-3.50673 2.63654,-3.483 2.63654,0.0293 0,6.29246 -7.66911,9.54618 -12.29507,5.2168 -3.1573,-2.95486 -2.72948,-7.85832 1.03874,-11.92578 2.78887,-3.01034 4.18911,-3.50586 9.90594,-3.50586 5.57849,0 7.20709,0.54509 10.0476,3.35938 4.82746,4.78291 4.43119,8.83195 -1.44481,14.76562 -2.65921,2.6853 -4.83493,5.33094 -4.83493,5.87891 0,0.54798 6.52715,0.99609 14.50479,0.99609 0,0 0,-2.5 0,-2.5 -5.94466,0 -8.12796,-2.54347 -4.83116,-5.62891 1.32727,-1.24216 2.41369,-3.29601 2.41369,-4.56445 0,-1.47294 0.87352,-2.30664 2.41747,-2.30664 0,0 0,-15 0,-15 0,0 -38.67945,0 -38.67945,0 0,0 -38.67944,0 -38.67944,0 0,0 0,-1e-5 0,-1e-5 m 77.35889,0 c 0,0 0,15 0,15 1.54395,0 2.41746,0.8337 2.41746,2.30664 0,1.26844 1.08641,3.32229 2.41368,4.56445 1.84115,1.72312 2.09141,2.65758 1.05954,3.94336 -0.74386,0.92689 -3.39428,1.68555 -5.89068,1.68555 0,0 0,2.5 0,2.5 7.97763,0 14.50478,-0.44811 14.50478,-0.99609 0,-0.54797 -2.17571,-3.19361 -4.83493,-5.87891 -5.7646,-5.82118 -6.18083,-9.65994 -1.58646,-14.61914 2.78887,-3.01034 4.18911,-3.50586 9.90594,-3.50586 5.57849,0 7.20709,0.54509 10.0476,3.35938 3.83907,3.80365 4.38241,8.43605 1.39004,11.85546 -4.07245,4.65364 -12.50472,1.42811 -12.50472,-4.7832 0,-3.67367 2.11316,-3.87099 2.63467,-0.24609 0.53808,3.7402 4.00595,5.82484 6.73302,4.04883 3.1821,-2.07236 3.25706,-5.35573 0.20019,-8.72071 -3.57675,-3.93725 -10.13254,-4.07477 -14.02318,-0.29492 -4.00032,3.88641 -3.59384,8.54498 1.13129,12.97461 9.16901,8.59561 13.7888,8.85951 22.36156,1.27734 2.68399,-2.37386 2.7553,-2.37386 5.43929,0 8.57276,7.58217 13.19255,7.31827 22.36156,-1.27734 4.6396,-4.34945 5.07495,-8.64467 1.29939,-12.80078 -3.64232,-4.00943 -10.49428,-3.95063 -14.19317,0.12109 -3.05687,3.36498 -2.98002,6.64835 0.20209,8.72071 2.72705,1.77601 6.19305,-0.30864 6.73113,-4.04883 0.50449,-3.50673 2.63654,-3.483 2.63654,0.0293 0,6.29246 -7.6691,9.54618 -12.29507,5.2168 -3.1573,-2.95486 -2.72947,-7.85832 1.03875,-11.92578 2.78887,-3.01034 4.18911,-3.50586 9.90594,-3.50586 5.57849,0 7.20708,0.54509 10.04759,3.35938 4.82747,4.78291 4.4312,8.83195 -1.44481,14.76562 -2.65921,2.6853 -4.83493,5.33094 -4.83493,5.87891 0,0.54798 6.52716,0.99609 14.50479,0.99609 0,0 0,-2.5 0,-2.5 -5.94465,0 -8.12795,-2.54347 -4.83116,-5.62891 1.32727,-1.24216 2.4137,-3.29601 2.4137,-4.56445 0,-1.47294 0.87351,-2.30664 2.41746,-2.30664 0,0 0,-15 0,-15 0,0 -38.67944,0 -38.67944,0 0,0 -38.67945,0 -38.67945,0 0,0 0,-1e-5 0,-1e-5 m -502.832805,27.5 c -1.32961,0 -2.41747,0.5625 -2.41747,1.25 0,0.6875 1.08786,1.25 2.41747,1.25 1.3296,0 2.41746,-0.5625 2.41746,-1.25 0,-0.6875 -1.08786,-1.25 -2.41746,-1.25 0,0 0,0 0,0 m 77.358895,0 c -1.32961,0 -2.41747,0.5625 -2.41747,1.25 0,0.6875 1.08786,1.25 2.41747,1.25 1.32961,0 2.41746,-0.5625 2.41746,-1.25 0,-0.6875 -1.08785,-1.25 -2.41746,-1.25 0,0 0,0 0,0 m 77.35889,0 c -1.3296,0 -2.41746,0.5625 -2.41746,1.25 0,0.6875 1.08786,1.25 2.41746,1.25 1.32961,0 2.41747,-0.5625 2.41747,-1.25 0,-0.6875 -1.08786,-1.25 -2.41747,-1.25 0,0 0,0 0,0 m 77.35889,0 c -1.3296,0 -2.41746,0.5625 -2.41746,1.25 0,0.6875 1.08786,1.25 2.41746,1.25 1.32961,0 2.41747,-0.5625 2.41747,-1.25 0,-0.6875 -1.08786,-1.25 -2.41747,-1.25 0,0 0,0 0,0 m 77.3589,0 c -1.32961,0 -2.41747,0.5625 -2.41747,1.25 0,0.6875 1.08786,1.25 2.41747,1.25 1.3296,0 2.41746,-0.5625 2.41746,-1.25 0,-0.6875 -1.08786,-1.25 -2.41746,-1.25 0,0 0,0 0,0 m 77.35889,0 c -1.32961,0 -2.41747,0.5625 -2.41747,1.25 0,0.6875 1.08786,1.25 2.41747,1.25 1.32961,0 2.41747,-0.5625 2.41747,-1.25 0,-0.6875 -1.08786,-1.25 -2.41747,-1.25 0,0 0,0 0,0 m 77.35889,0 c -1.3296,0 -2.41746,0.5625 -2.41746,1.25 0,0.6875 1.08786,1.25 2.41746,1.25 1.32961,0 2.41747,-0.5625 2.41747,-1.25 0,-0.6875 -1.08786,-1.25 -2.41747,-1.25 0,0 0,0 0,0 m 77.3589,0 c -1.32961,0 -2.41747,0.5625 -2.41747,1.25 0,0.6875 1.08786,1.25 2.41747,1.25 1.3296,0 2.41746,-0.5625 2.41746,-1.25 0,-0.6875 -1.08786,-1.25 -2.41746,-1.25 0,0 0,0 0,0 m -541.512255,5 c -15.163985,0 -27.89366,0.0435 -38.679443,0.11914 0,0 0,2.26172 0,2.26172 10.785783,0.0756 23.515458,0.11914 38.679443,0.11914 15.164335,0 27.893515,-0.0435 38.679445,-0.11914 0,0 0,-2.26172 0,-2.26172 -10.78593,-0.0756 -23.51511,-0.11914 -38.679445,-0.11914 0,0 0,0 0,0 m 77.358895,0 c -15.16399,0 -27.89366,0.0435 -38.67945,0.11914 0,0 0,2.26172 0,2.26172 10.78579,0.0756 23.51546,0.11914 38.67945,0.11914 15.16433,0 27.89352,-0.0435 38.67945,-0.11914 0,0 0,-2.26172 0,-2.26172 -10.78593,-0.0756 -23.51512,-0.11914 -38.67945,-0.11914 0,0 0,0 0,0 m 77.35889,0 c -15.16398,0 -27.89366,0.0435 -38.67944,0.11914 0,0 0,2.26172 0,2.26172 10.78578,0.0756 23.51546,0.11914 38.67944,0.11914 15.16434,0 27.89352,-0.0435 38.67945,-0.11914 0,0 0,-2.26172 0,-2.26172 -10.78593,-0.0756 -23.51511,-0.11914 -38.67945,-0.11914 0,0 0,0 0,0 m 77.35889,0 c -15.16398,0 -27.89366,0.0435 -38.67944,0.11914 0,0 0,2.26172 0,2.26172 10.78578,0.0756 23.51546,0.11914 38.67944,0.11914 15.16434,0 27.89352,-0.0435 38.67945,-0.11914 0,0 0,-2.26172 0,-2.26172 -10.78593,-0.0756 -23.51511,-0.11914 -38.67945,-0.11914 0,0 0,0 0,0 m 77.3589,0 c -15.16399,0 -27.89367,0.0435 -38.67945,0.11914 0,0 0,2.26172 0,2.26172 10.78578,0.0756 23.51546,0.11914 38.67945,0.11914 15.16433,0 27.89352,-0.0435 38.67944,-0.11914 0,0 0,-2.26172 0,-2.26172 -10.78592,-0.0756 -23.51511,-0.11914 -38.67944,-0.11914 0,0 0,0 0,0 m 77.35889,0 c -15.16399,0 -27.89366,0.0435 -38.67945,0.11914 0,0 0,2.26172 0,2.26172 10.78579,0.0756 23.51546,0.11914 38.67945,0.11914 15.16434,0 27.89352,-0.0435 38.67945,-0.11914 0,0 0,-2.26172 0,-2.26172 -10.78593,-0.0756 -23.51511,-0.11914 -38.67945,-0.11914 0,0 0,0 0,0 m 77.35889,0 c -15.16398,0 -27.89366,0.0435 -38.67944,0.11914 0,0 0,2.26172 0,2.26172 10.78578,0.0756 23.51546,0.11914 38.67944,0.11914 15.16434,0 27.89352,-0.0435 38.67945,-0.11914 0,0 0,-2.26172 0,-2.26172 -10.78593,-0.0756 -23.51511,-0.11914 -38.67945,-0.11914 0,0 0,0 0,0 m 77.3589,0 c -15.16399,0 -27.89367,0.0435 -38.67945,0.11914 0,0 0,2.26172 0,2.26172 10.78578,0.0756 23.51546,0.11914 38.67945,0.11914 15.16433,0 27.89351,-0.0435 38.67944,-0.11914 0,0 0,-2.26172 0,-2.26172 -10.78593,-0.0756 -23.51511,-0.11914 -38.67944,-0.11914 0,0 0,0 0,0"
           id="path5950" />
        <path
           style="fill:#000000"
           d="m 7.280161,238.63004 0,-25 25,0 25,0 0,25 0,24.99999 -25,0 -25,0 0,-24.99999 z m 45.83334,0 0,-20.83334 -20.83334,0 -20.83334,0 0,20.83334 0,20.83332 20.83334,0 20.83334,0 0,-20.83332 z m -39.58334,0 0,-18.75 18.75,0 18.75,0 0,18.75 0,18.74999 -18.75,0 -18.75,0 0,-18.74999 z m 16.14584,14.58332 c 1.03696,-1.14583 2.78372,-2.08332 3.88167,-2.08332 2.0762,0 4.97249,-2.28246 4.97249,-3.91866 0,-1.39024 -13.09264,-14.239 -16.20846,-15.90654 -3.70575,-1.98325 -6.09903,-0.2792 -6.515,4.6388 -0.45904,5.42698 1.11975,6.85305 7.5868,6.85305 5.18835,0 11.23074,2.06039 12.6161,4.30194 1.26762,2.05106 -0.41848,2.01691 -4.15939,-0.0842 -4.51966,-2.53855 -11.25455,-2.80964 -13.14714,-0.5292 -1.12116,1.3509 -0.77897,2.17595 2.16013,5.20831 3.99036,4.11703 6.12865,4.48578 8.8128,1.51984 z m 12.65072,-0.97319 c 0.65583,-1.30413 2.25944,-2.90774 3.56358,-3.56357 2.75562,-1.38572 3.89134,-3.79656 1.7885,-3.79656 -4.31434,0 -9.14864,4.8343 -9.14864,9.14863 0,2.10283 2.41084,0.96711 3.79656,-1.7885 z m 6.6201,0.97319 c 0,-2.36116 -1.08021,-2.66978 -2.91666,-0.83333 -1.83645,1.83645 -1.52782,2.91666 0.83334,2.91666 1.38889,0 2.08332,-0.69444 2.08332,-2.08332 z m -5.65475,-9.82141 c 0.81845,-0.81846 1.48809,-2.38644 1.48809,-3.4844 0,-1.09795 0.9375,-2.84471 2.08334,-3.88167 2.96595,-2.68415 2.5972,-4.82244 -1.51983,-8.81281 -3.03237,-2.9391 -3.85742,-3.28129 -5.20832,-2.16013 -2.28044,1.89259 -2.00935,8.62748 0.5292,13.14714 2.10112,3.74092 2.13527,5.42701 0.0842,4.15939 -2.24155,-1.38537 -4.30194,-7.42775 -4.30194,-12.61609 0,-6.46705 -1.42609,-8.04584 -6.85305,-7.58681 -8.1529,0.68961 -7.31,4.93892 3.14033,15.83127 6.72325,7.00764 8.19905,7.76303 10.55797,5.4041 z"
           id="path4197" />
        <path
           style="fill:#000000"
           d="m 726.1513,238.63003 0,-25 -25,0 -25,0 0,25 0,24.99999 25,0 25,0 0,-24.99999 z m -45.83334,0 0,-20.83334 20.83334,0 20.83334,0 0,20.83334 0,20.83333 -20.83334,0 -20.83334,0 0,-20.83333 z m 39.58334,0 0,-18.75 -18.75,0 -18.75,0 0,18.75 0,18.74999 18.75,0 18.75,0 0,-18.74999 z m -16.14584,14.58333 c -1.03696,-1.14584 -2.78372,-2.08333 -3.88167,-2.08333 -2.0762,0 -4.97249,-2.28246 -4.97249,-3.91865 0,-1.39024 13.09264,-14.239 16.20846,-15.90654 3.70575,-1.98325 6.09903,-0.2792 6.515,4.6388 0.45903,5.42697 -1.11975,6.85305 -7.58681,6.85305 -5.18835,0 -11.23073,2.06039 -12.61609,4.30194 -1.26762,2.05106 0.41848,2.01691 4.15939,-0.0842 4.51966,-2.53855 11.25455,-2.80964 13.14714,-0.5292 1.12116,1.3509 0.77897,2.17595 -2.16013,5.20831 -3.99036,4.11703 -6.12865,4.48578 -8.8128,1.51983 z m -12.65072,-0.9732 c -0.65583,-1.30413 -2.25944,-2.90774 -3.56358,-3.56357 -2.75562,-1.38572 -3.89134,-3.79656 -1.7885,-3.79656 4.31434,0 9.14864,4.83431 9.14864,9.14863 0,2.10283 -2.41084,0.96712 -3.79656,-1.7885 z m -6.6201,0.9732 c 0,-2.36116 1.08021,-2.66978 2.91666,-0.83334 1.83645,1.83645 1.52782,2.91666 -0.83334,2.91666 -1.38889,0 -2.08332,-0.69444 -2.08332,-2.08332 z m 5.65475,-9.82142 c -0.81845,-0.81846 -1.48809,-2.38644 -1.48809,-3.4844 0,-1.09795 -0.9375,-2.84471 -2.08334,-3.88167 -2.96595,-2.68415 -2.5972,-4.82244 1.51983,-8.8128 3.03237,-2.9391 3.85742,-3.28129 5.20831,-2.16013 2.28044,1.89259 2.00936,8.62748 -0.52919,13.14714 -2.10112,3.74091 -2.13527,5.42701 -0.0842,4.15939 2.24155,-1.38537 4.30193,-7.42775 4.30193,-12.6161 0,-6.46705 1.4261,-8.04584 6.85306,-7.5868 8.1529,0.6896 7.30999,4.93892 -3.14033,15.83127 -6.72325,7.00764 -8.19905,7.76303 -10.55797,5.4041 z"
           id="path4197-4" />
      </g>
      <use
         x="0"
         y="0"
         xlink:href="#path1578"
         id="use5487"
         transform="matrix(-1,0,0,1,866.45422,0)"
         width="100%"
         height="100%" />
    </g>
  </g>
</svg>
