<?xml version="1.0" encoding="UTF-8" standalone="no"?>
<!-- Created with Inkscape (http://www.inkscape.org/) -->
<!-- ClipArt by Arvin61r58 (http://openclipart.org/user-detail/Arvin61r58) -->
<svg id="svg2" xmlns:rdf="http://www.w3.org/1999/02/22-rdf-syntax-ns#" xmlns="http://www.w3.org/2000/svg" height="11in" viewBox="0 0 765 990" width="8.5in" version="1.1" xmlns:cc="http://creativecommons.org/ns#" xmlns:dc="http://purl.org/dc/elements/1.1/">
 <title id="title4149">Border 37</title>
 <metadata id="metadata7">
  <rdf:RDF>
   <cc:Work rdf:about="">
    <dc:format>image/svg+xml</dc:format>
    <dc:type rdf:resource="http://purl.org/dc/dcmitype/StillImage"/>
    <dc:title>Border 37</dc:title>
    <dc:creator>
     <cc:Agent>
      <dc:title>Arvin61r58</dc:title>
     </cc:Agent>
    </dc:creator>
    <dc:publisher>
     <cc:Agent>
      <dc:title>Openclipart.org</dc:title>
     </cc:Agent>
    </dc:publisher>
    <dc:identifier>https://openclipart.org/</dc:identifier>
    <dc:source>https://openclipart.org/user-detail/Arvin61r58</dc:source>
    <dc:subject>
     <rdf:Bag>
      <rdf:li>frame</rdf:li>
      <rdf:li>border</rdf:li>
      <rdf:li>black and white</rdf:li>
      <rdf:li>monochrome</rdf:li>
     </rdf:Bag>
    </dc:subject>
    <dc:description>border/frame</dc:description>
    <cc:license rdf:resource="http://creativecommons.org/publicdomain/zero/1.0/"/>
   </cc:Work>
   <cc:License rdf:about="http://creativecommons.org/publicdomain/zero/1.0/">
    <cc:permits rdf:resource="http://creativecommons.org/ns#Reproduction"/>
    <cc:permits rdf:resource="http://creativecommons.org/ns#Distribution"/>
    <cc:permits rdf:resource="http://creativecommons.org/ns#DerivativeWorks"/>
   </cc:License>
  </rdf:RDF>
 </metadata>
 <g id="layer1" transform="translate(0 -62.362)">
  <title id="title4146">Border 37  --  by Arvin61r58</title>
  <path id="path4147" d="m22.5 1006.1v-23.75h10v37.5h37.5v10h-47.5v-23.75zm52.5-2.5v-26.25h-52.5v-840h52.5v-52.5h615v52.5h52.5v840h-52.5v52.5h-615v-26.25zm610-5v-26.25h52.5v-830h-52.5v-52.5h-605v52.5h-52.5v830h52.5v52.5h605v-26.25zm-600 13.75v-7.5h595v15h-595v-7.5zm0-15v-2.5h595v5h-595v-2.5zm-52.5-440v-410h15v820h-15v-410zm20 0v-410h5v820h-5v-410zm655 0v-410h5v820h-5v-410zm10 0v-410h15v820h-15v-410zm-632.5-440v-2.5h595v5h-595v-2.5zm0-15v-7.5h595v15h-595v-7.5zm610 922.5v-5h37.5v-37.5h10v47.5h-47.5v-5zm-657.5-26.25v-16.25h10v22.5h22.5v10h-32.5v-16.25zm657.5 11.25v-5h22.5v-22.5h10v32.5h-32.5v-5zm-642.5-18.75v-8.75h5v12.5h12.5v5h-17.5v-8.75zm642.5 6.25v-2.5h12.5v-12.5h5v17.5h-17.5v-2.5zm-633.75-10.625v-4.375h8.75v8.75h-8.75v-4.375zm633.75 0v-4.375h8.75v8.75h-8.75v-4.375zm-672.5-878.17v-23.75h47.5v10h-37.5v37.5h-10v-23.75zm15 7.5v-16.25h32.5v10h-22.5v22.5h-10v-16.25zm15 7.5v-8.75h17.5v5h-12.5v12.5h-5v-8.75zm8.75 4.375v-4.375h8.75v8.75h-8.75v-4.375zm633.75 0v-4.375h8.75v8.75h-8.75v-4.375zm12.5-1.875v-6.25h-12.5v-5h17.5v17.5h-5v-6.25zm10-5v-11.25h-22.5v-10h32.5v32.5h-10v-11.25zm15-7.5v-18.75h-37.5v-10h47.5v47.5h-10v-18.75z">
   <title id="title4151">Border 37  --  by Arvin61r58</title>
  </path>
 </g>
</svg>
