<?xml version="1.0" encoding="UTF-8" standalone="no"?>
<!-- Created with Inkscape (http://www.inkscape.org/) -->
<!-- ClipArt by Arvin61r58 (http://openclipart.org/user-detail/Arvin61r58) -->
<svg
   xmlns:dc="http://purl.org/dc/elements/1.1/"
   xmlns:cc="http://creativecommons.org/ns#"
   xmlns:rdf="http://www.w3.org/1999/02/22-rdf-syntax-ns#"
   xmlns:svg="http://www.w3.org/2000/svg"
   xmlns="http://www.w3.org/2000/svg"
   version="1.1"
   id="svg4222"
   viewBox="0 0 765 990"
   height="990"
   width="765">
  <title
     id="title5107">Border 20</title>
  <defs
     id="defs4224" />
  <metadata
     id="metadata4227">
    <rdf:RDF>
      <cc:Work
         rdf:about="">
        <dc:format>image/svg+xml</dc:format>
        <dc:type
           rdf:resource="http://purl.org/dc/dcmitype/StillImage" />
        <dc:title>Border 20</dc:title>
        <dc:description>decorative border/frame</dc:description>
        <dc:creator>
          <cc:Agent>
            <dc:title>Arvin61r58</dc:title>
          </cc:Agent>
        </dc:creator>
        <dc:publisher>
          <cc:Agent>
            <dc:title>Openclipart.org</dc:title>
          </cc:Agent>
        </dc:publisher>
        <dc:identifier>https://openclipart.org/</dc:identifier>
        <dc:source>https://openclipart.org/user-detail/Arvin61r58</dc:source>
        <dc:subject>
          <rdf:Bag>
            <rdf:li>frame</rdf:li>
            <rdf:li>border</rdf:li>
            <rdf:li>flourish</rdf:li>
            <rdf:li>black and white</rdf:li>
            <rdf:li>monochrome</rdf:li>
          </rdf:Bag>
        </dc:subject>
        <cc:license
           rdf:resource="http://creativecommons.org/publicdomain/zero/1.0/" />
      </cc:Work>
      <cc:License
         rdf:about="http://creativecommons.org/publicdomain/zero/1.0/">
        <cc:permits
           rdf:resource="http://creativecommons.org/ns#Reproduction" />
        <cc:permits
           rdf:resource="http://creativecommons.org/ns#Distribution" />
        <cc:permits
           rdf:resource="http://creativecommons.org/ns#DerivativeWorks" />
      </cc:License>
    </rdf:RDF>
  </metadata>
  <g
     transform="translate(0,-62.362205)"
     id="layer1">
    <g
       transform="matrix(1,0,0,1.0015878,-17.04199,-13.11409)"
       id="g5089">
      <path
         style="color:#000000;font-style:normal;font-variant:normal;font-weight:normal;font-stretch:normal;font-size:medium;line-height:normal;font-family:sans-serif;text-indent:0;text-align:start;text-decoration:none;text-decoration-line:none;text-decoration-style:solid;text-decoration-color:#000000;letter-spacing:normal;word-spacing:normal;text-transform:none;direction:ltr;block-progression:tb;writing-mode:lr-tb;baseline-shift:baseline;text-anchor:start;white-space:normal;clip-rule:nonzero;display:inline;overflow:visible;visibility:visible;opacity:1;isolation:auto;mix-blend-mode:normal;color-interpolation:sRGB;color-interpolation-filters:linearRGB;solid-color:#000000;solid-opacity:1;fill:#000000;fill-opacity:1;fill-rule:nonzero;stroke:none;stroke-width:10.30000019;stroke-linecap:square;stroke-linejoin:miter;stroke-miterlimit:4;stroke-dasharray:none;stroke-dashoffset:0;stroke-opacity:1;color-rendering:auto;image-rendering:auto;shape-rendering:auto;text-rendering:auto;enable-background:accumulate"
         d="m 48.171875,34.710938 c -2.70856,0.994699 -5.055112,3.527602 -7.576172,8.039062 -0.44341,0.7935 -0.790552,1.836052 -1.044922,2.976562 l 0,8.306641 c 0.18883,0.51639 0.428556,0.906377 0.728516,1.091797 0.69696,0.43083 1.265625,3.283211 1.265625,6.337891 0,3.05468 0.570618,5.905107 1.267578,6.335937 0.803488,0.496686 1.218237,26.666968 1.279297,54.650392 l -0.201172,0 0,5.15039 0,765.03711 0,5.15039 0.173828,0 c -0.115328,25.02444 -0.519599,46.88521 -1.251953,47.33789 -0.69696,0.4309 -1.267578,3.28124 -1.267578,6.33594 0,3.0547 -0.568665,5.90699 -1.265625,6.33789 -0.29996,0.1854 -0.539686,0.5754 -0.728516,1.09179 l 0,8.30665 c 0.25437,1.1405 0.601512,2.18306 1.044922,2.97656 2.52106,4.5114 4.867612,7.04436 7.576172,8.03906 l 6.560547,0 c 3.76748,-0.9287 7.819941,-3.03157 9.644531,-5.23047 0.85564,-1.0312 2.234753,-1.875 3.064453,-1.875 4.127808,0 17.189453,-20.70329 17.189453,-27.24609 0,-2.9313 -6.186189,-9.24579 -11.800781,-12.04688 -2.866747,-1.43011 -4.052603,-1.4713 -6.070312,-0.21093 -3.166771,1.97805 -4.939454,0.91808 -4.939454,-2.95508 0,-1.66048 -0.570618,-3.3719 -1.267578,-3.80274 -0.85662,-0.52951 -1.284968,-20.4963 -1.292968,-40.63281 l -2.535157,0 c 0.0078,20.77013 0.437602,41.37043 1.294922,41.90039 0.69696,0.43084 1.267578,1.80288 1.267578,3.04883 0,3.48136 3.60435,9.92131 7.087891,12.66211 2.008479,1.5801 2.630128,2.77593 1.730469,3.33203 -2.87969,1.7801 -11.353516,-9.21098 -11.353516,-14.72656 0,-1.24596 -0.570618,-2.61798 -1.267578,-3.04883 -0.848,-0.52418 -1.275337,-21.28933 -1.292969,-42.4375 l 0,-756.96289 c 0.01763,-21.14817 0.444969,-41.91332 1.292969,-42.437501 0.69696,-0.43085 1.267578,-1.802868 1.267578,-3.048828 0,-5.51558 8.473826,-16.506673 11.353516,-14.726563 0.899659,0.55606 0.27801,1.751861 -1.730469,3.332031 -3.483541,2.74076 -7.087891,9.18075 -7.087891,12.66211 0,1.24595 -0.570618,2.617988 -1.267578,3.048828 -0.85732,0.52996 -1.287122,21.130263 -1.294922,41.900393 l 2.535157,0 c 0.008,-20.13651 0.436348,-40.103305 1.292968,-40.632815 0.69696,-0.43084 1.267578,-2.142254 1.267578,-3.802734 0,-3.87316 1.772683,-4.933128 4.939454,-2.955079 2.017709,1.26037 3.203565,1.219173 6.070312,-0.210937 5.614592,-2.80109 11.800781,-9.115575 11.800781,-12.046875 0,-6.54282 -13.061645,-27.246094 -17.189453,-27.246094 -0.8297,0 -2.208813,-0.84381 -3.064453,-1.875 -1.82459,-2.19895 -5.877051,-4.301688 -9.644531,-5.230468 l -6.560547,0 z m 32.761719,0 c -0.1079,0.25431 -0.105469,0.663228 -0.105469,1.205078 0,0.93761 -1.139283,2.73826 -2.533203,4 -1.39392,1.26174 -2.535156,3.257426 -2.535156,4.435546 0,1.178121 1.141236,3.173767 2.535156,4.435547 1.39392,1.26168 2.533203,3.06239 2.533203,4 0,1.99975 7.041901,2.371717 8.238281,0.435547 0.49459,-0.80045 16.724494,-1.257582 44.484374,-1.263672 l 0,-0.0332 531.98242,0 0,0.0332 c 27.75988,0.006 43.98979,0.463222 44.48438,1.263672 1.19638,1.93617 8.23828,1.564203 8.23828,-0.435547 0,-0.93761 1.13928,-2.73832 2.5332,-4 1.39392,-1.26178 2.53516,-3.257426 2.53516,-4.435547 0,-1.17812 -1.14124,-3.173806 -2.53516,-4.435546 -1.39392,-1.26174 -2.5332,-3.06239 -2.5332,-4 0,-0.54185 0.002,-0.950769 -0.10547,-1.205078 l -1.53906,0 c -1.16187,0.451419 -3.12119,1.475684 -6.59375,3.302734 l -7.22656,3.802734 -14.70899,0 0,-0.04102 -5.125,0 -563.25391,0 -5.125,0 0,0.04102 -18.285151,0 -7.226563,-3.802734 c -3.47256,-1.82705 -5.43188,-2.851315 -6.59375,-3.302734 l -1.539062,0 z m 663.417966,0 c -3.76748,0.92878 -7.81994,3.031518 -9.64453,5.230468 -0.85564,1.03119 -2.23475,1.875 -3.06445,1.875 -4.12781,0 -17.18946,20.703274 -17.18946,27.246094 0,2.93129 6.1862,9.245785 11.80079,12.046875 2.86675,1.4301 4.0526,1.471307 6.07031,0.210937 3.16677,-1.978049 4.93945,-0.918081 4.93945,2.955079 0,1.66047 0.57062,3.371894 1.26758,3.802734 0.85662,0.5295 1.28497,20.496305 1.29297,40.632815 l 2.53516,0 c -0.008,-20.77014 -0.43761,-41.370443 -1.29493,-41.900393 -0.69696,-0.43084 -1.26757,-1.802868 -1.26757,-3.048828 0,-3.48136 -3.60436,-9.92136 -7.0879,-12.66211 -2.00848,-1.58017 -2.63012,-2.775971 -1.73046,-3.332031 2.87969,-1.78011 11.35351,9.210983 11.35351,14.726563 0,1.24596 0.57062,2.617988 1.26758,3.048828 0.81899,0.50625 1.23692,19.938471 1.28125,40.314451 l 0,1.74219 0,759.4668 c -0.0443,20.37598 -0.46226,39.8082 -1.28125,40.31445 -0.69696,0.43084 -1.26758,1.80287 -1.26758,3.04883 0,5.51558 -8.47382,16.50666 -11.35351,14.72656 -0.89966,-0.5561 -0.27802,-1.75193 1.73046,-3.33203 3.48354,-2.7408 7.0879,-9.18075 7.0879,-12.66211 0,-1.24596 0.57061,-2.61799 1.26757,-3.04883 0.85732,-0.52995 1.28692,-21.13025 1.29493,-41.90039 l -2.53516,0 c -0.008,20.13651 -0.43635,40.10331 -1.29297,40.63281 -0.69696,0.43084 -1.26758,2.14227 -1.26758,3.80274 0,3.87316 -1.77268,4.93313 -4.93945,2.95508 -2.01771,-1.26037 -3.20356,-1.21917 -6.07031,0.21093 -5.61459,2.80109 -11.80079,9.11558 -11.80079,12.04688 0,6.5428 13.06165,27.24609 17.18946,27.24609 0.8297,0 2.20881,0.8438 3.06445,1.875 1.82459,2.1989 5.87705,4.30177 9.64453,5.23047 l 6.56055,0 c 2.70856,-0.9947 5.05511,-3.52766 7.57617,-8.03906 0.44341,-0.7935 0.79055,-1.83606 1.04492,-2.97656 l 0,-8.30665 c -0.18883,-0.5164 -0.42855,-0.90639 -0.72851,-1.09179 -0.69696,-0.4309 -1.26563,-3.28319 -1.26563,-6.33789 0,-3.0547 -0.57062,-5.90504 -1.26758,-6.33594 -0.73235,-0.45268 -1.13679,-22.31345 -1.25195,-47.33789 l 0.16211,0 0,-5.15039 0,-765.03711 0,-5.15039 -0.18945,0 c 0.0608,-27.983424 0.47581,-54.153706 1.27929,-54.650392 0.69696,-0.43084 1.26758,-3.281257 1.26758,-6.335937 0,-3.05468 0.56867,-5.907061 1.26563,-6.337891 0.29996,-0.18542 0.53968,-0.575407 0.72851,-1.091797 l 0,-8.306641 c -0.25437,-1.14051 -0.60151,-2.183062 -1.04492,-2.976562 -2.52106,-4.51146 -4.86761,-7.044363 -7.57617,-8.039062 l -6.56055,0 z M 51.193359,39.552734 c 3.42029,-0.13558 12.152605,8.630874 15.828125,16.027344 1.60774,3.23537 3.946606,7.395804 5.197266,9.246094 1.250649,1.85038 2.273438,4.274399 2.273438,5.386719 0,1.11232 -0.568664,2.023437 -1.265626,2.023437 -0.69696,0 -1.267578,-0.911117 -1.267578,-2.023437 0,-1.11232 -1.040398,-3.536339 -2.310546,-5.386719 -1.27016,-1.8503 -3.302259,-5.525569 -4.517579,-8.167969 -2.85644,-6.21066 -9.24273,-13.454582 -13.36914,-15.164062 -2.795851,-1.15827 -2.918014,-1.422221 -0.882813,-1.900391 0.0989,-0.0232 0.204123,-0.03662 0.314453,-0.04102 z m 696.697261,0 c 0.11033,0.004 0.21556,0.01782 0.31446,0.04102 2.0352,0.47817 1.91304,0.742111 -0.88281,1.900391 -4.12641,1.70948 -10.5127,8.953402 -13.36915,15.164062 -1.21532,2.6424 -3.24741,6.317669 -4.51757,8.167969 -1.27015,1.85037 -2.31055,4.274399 -2.31055,5.386719 0,1.11232 -0.57062,2.023437 -1.26758,2.023437 -0.69696,0 -1.26562,-0.911117 -1.26562,-2.023437 0,-1.11232 1.02278,-3.536349 2.27343,-5.386719 1.25066,-1.85029 3.58953,-6.010724 5.19727,-9.246094 3.67553,-7.39647 12.40783,-16.162924 15.82812,-16.027344 z M 47.582031,42.046875 c 0.19306,-0.0775 0.437814,0.608651 0.902344,1.988281 1.01347,3.01009 2.686368,3.751915 3.429687,1.521485 0.243631,-0.73106 2.108822,0.409876 4.144532,2.535156 l 3.701172,3.865234 -4.988282,-0.04883 c -5.90505,-0.057 -8.523353,-2.504287 -7.783203,-7.273437 0.2592,-1.67016 0.40069,-2.510391 0.59375,-2.587891 z m 703.919919,0 c 0.19306,0.0775 0.33455,0.917731 0.59375,2.587891 0.74015,4.76915 -1.87815,7.216437 -7.7832,7.273437 l -4.98828,0.04883 3.70117,-3.865234 c 2.03571,-2.12528 3.9009,-3.266216 4.14453,-2.535156 0.74332,2.23043 2.41622,1.488605 3.42969,-1.521485 0.46453,-1.37963 0.70928,-2.065781 0.90234,-1.988281 z M 133.55078,54.492188 c -26.91627,0.006 -42.724969,0.466435 -43.218749,1.265624 -0.43075,0.697101 -2.17372,1.267579 -3.875,1.267579 -1.70127,0 -3.09375,0.570478 -3.09375,1.267578 0,0.6971 1.676813,1.267578 3.726563,1.267578 2.04976,0 4.079025,-0.570478 4.509765,-1.267578 0.49292,-0.7978 15.878431,-1.259125 41.951171,-1.265625 l 0,-2.535156 z m 531.98242,0 0,2.535156 c 26.07274,0.007 41.45825,0.467825 41.95118,1.265625 0.43074,0.6971 2.46,1.267578 4.50976,1.267578 2.04975,0 3.72656,-0.570478 3.72656,-1.267578 0,-0.6971 -1.39248,-1.267578 -3.09375,-1.267578 -1.70128,0 -3.44425,-0.570479 -3.875,-1.267579 -0.49378,-0.799189 -16.30248,-1.259624 -43.21875,-1.265624 z M 68.953125,72.632812 c 0.454359,0.0339 0.470703,1.008325 0.470703,3.208985 0,4.55434 0.0996,4.474437 -2.839844,2.242187 -2.080921,-1.58027 -2.06143,-1.802951 0.31836,-3.957031 1.079799,-0.97741 1.69739,-1.520491 2.050781,-1.494141 z m 661.177735,0 c 0.35339,-0.0263 0.97098,0.516731 2.05078,1.494141 2.37979,2.15408 2.39928,2.376761 0.31836,3.957031 -2.93943,2.23225 -2.83984,2.312153 -2.83984,-2.242187 0,-2.20066 0.0163,-3.175085 0.4707,-3.208985 z M 68.958984,933.35352 c 0.495583,0.0709 0.464844,1.1667 0.464844,3.72851 0,2.20062 -0.01634,3.17499 -0.470703,3.20899 -0.353391,0.0263 -0.970982,-0.51675 -2.050781,-1.49414 -2.37979,-2.15406 -2.399281,-2.37677 -0.31836,-3.95704 1.286007,-0.97661 1.989547,-1.5415 2.375,-1.48632 z m 661.164066,0 c 0.38545,-0.0552 1.09095,0.50971 2.37695,1.48632 2.08092,1.58027 2.06143,1.80298 -0.31836,3.95704 -1.0798,0.97739 -1.69739,1.52014 -2.05078,1.49414 -0.4544,-0.0339 -0.4707,-1.00837 -0.4707,-3.20899 0,-2.56181 -0.0327,-3.65758 0.46289,-3.72851 z M 73.226562,940.6875 c 0.696962,0 1.265626,0.91114 1.265626,2.02344 0,1.1123 -1.022789,3.53632 -2.273438,5.38672 -1.25066,1.8503 -3.589526,6.01069 -5.197266,9.24609 -3.67552,7.3965 -12.407835,16.16294 -15.828125,16.02734 -0.11033,-0.004 -0.215553,-0.018 -0.314453,-0.041 -2.035201,-0.4781 -1.913038,-0.74209 0.882813,-1.90039 4.12641,-1.7094 10.5127,-8.95346 13.36914,-15.16407 1.21532,-2.64239 3.247419,-6.31766 4.517579,-8.16796 1.270148,-1.8504 2.310546,-4.27442 2.310546,-5.38672 0,-1.1123 0.570618,-2.02344 1.267578,-2.02344 z m 652.630858,0 c 0.69696,0 1.26758,0.91114 1.26758,2.02344 0,1.1123 1.0404,3.53632 2.31055,5.38672 1.27016,1.8503 3.30225,5.52557 4.51757,8.16796 2.85645,6.2106 9.24274,13.45467 13.36915,15.16407 2.79585,1.1583 2.91801,1.42229 0.88281,1.90039 -0.0989,0.023 -0.20413,0.041 -0.31446,0.041 -3.42029,0.1355 -12.15259,-8.63084 -15.82812,-16.02734 -1.60774,-3.2354 -3.94661,-7.39579 -5.19727,-9.24609 -1.25065,-1.8504 -2.27343,-4.27442 -2.27343,-5.38672 0,-1.1123 0.56866,-2.02344 1.26562,-2.02344 z M 87.089844,953.36328 c -2.04975,0 -3.726563,0.57048 -3.726563,1.26758 0,0.6971 1.39248,1.26758 3.09375,1.26758 1.70128,0 3.44425,0.57048 3.875,1.26758 0.49378,0.7991 16.302479,1.25562 43.218749,1.26562 l 0,-2.53516 c -26.07274,-0.006 -41.458251,-0.46782 -41.951171,-1.26562 -0.43074,-0.6971 -2.460005,-1.26758 -4.509765,-1.26758 z m 624.904296,0 c -2.04976,0 -4.07902,0.57048 -4.50976,1.26758 -0.49293,0.7978 -15.87844,1.25562 -41.95118,1.26562 l 0,2.53516 c 26.91627,-0.006 42.72497,-0.46642 43.21875,-1.26562 0.43075,-0.6971 2.17372,-1.26758 3.875,-1.26758 1.70127,0 3.09375,-0.57048 3.09375,-1.26758 0,-0.6971 -1.67681,-1.26758 -3.72656,-1.26758 z m -627.496093,5.08008 c -1.910023,0.10095 -3.669922,0.69346 -3.669922,1.69336 0,0.9376 -1.139283,2.7383 -2.533203,4 -1.39392,1.2617 -2.535156,3.25745 -2.535156,4.43555 0,1.1781 1.141236,3.17374 2.535156,4.43554 1.39392,1.2617 2.533203,3.0623 2.533203,4 0,0.5418 -0.0024,0.95078 0.105469,1.20508 l 1.539062,0 c 1.16187,-0.4514 3.12119,-1.47563 6.59375,-3.30273 l 7.226563,-3.80274 18.285151,0 0,0.041 5.125,0 563.25391,0 5.125,0 0,-0.041 14.70899,0 7.22656,3.80274 c 3.47256,1.8271 5.43188,2.85133 6.59375,3.30273 l 1.53906,0 c 0.10746,-0.2543 0.10547,-0.66328 0.10547,-1.20508 0,-0.9377 1.13928,-2.7383 2.5332,-4 1.39392,-1.2618 2.53516,-3.25744 2.53516,-4.43554 0,-1.1781 -1.14124,-3.17385 -2.53516,-4.43555 -1.39392,-1.2617 -2.5332,-3.0624 -2.5332,-4 0,-1.9998 -7.0419,-2.37175 -8.23828,-0.43555 -0.49459,0.8005 -16.7245,1.25367 -44.48438,1.26367 l 0,0.0332 -531.98242,0 0,-0.0332 c -27.75988,-0.006 -43.989784,-0.46317 -44.484374,-1.26367 -0.59819,-0.9681 -2.658336,-1.35876 -4.568359,-1.25781 z m -24.738281,2.52344 -3.701172,3.86523 c -2.03571,2.1253 -3.900901,3.26626 -4.144532,2.53516 -0.743319,-2.2304 -2.416217,-1.48862 -3.429687,1.52148 -0.46453,1.3796 -0.709284,2.06528 -0.902344,1.98828 -0.19306,-0.0775 -0.33455,-0.91779 -0.59375,-2.58789 -0.74015,-4.7692 1.878153,-7.21643 7.783203,-7.27344 l 4.988282,-0.0488 z m 679.564454,0 4.98828,0.0488 c 5.90505,0.057 8.52335,2.50434 7.7832,7.27344 -0.2592,1.6702 -0.40069,2.50989 -0.59375,2.58789 -0.19306,0.0775 -0.43781,-0.60858 -0.90234,-1.98828 -1.01347,-3.01 -2.68637,-3.75198 -3.42969,-1.52148 -0.24363,0.731 -2.10882,-0.40986 -4.14453,-2.53516 l -3.70117,-3.86523 z"
         id="path4964"
         transform="translate(0,62.362205)" />
      <g
         id="g5073">
        <g
           transform="translate(5.503196e-4,1.010394)"
           id="g5065">
          <g
             id="g4958"
             transform="matrix(1,0,0,-1,8.0816325,1157.5239)">
            <path
               style="fill:#000000"
               d="m 211.08607,160.17216 c -2.2085,-3.98508 -8.48709,-7.02263 -14.56889,-7.04832 -2.72603,-0.0113 -11.30874,2.41364 -15.01193,4.24188 -3.14131,1.55081 -4.24096,1.25613 -4.24096,-1.13652 0,-2.59659 2.39105,-5.67046 5.83095,-7.49614 2.5532,-1.35508 6.4283,-1.93856 5.31263,-0.79994 -0.34872,0.3559 0.0257,0.50258 0.98743,0.38686 2.36335,-0.28428 2.26552,-2.12645 -0.17178,-3.23492 -2.76203,-1.25615 -7.45292,-1.23451 -10.19953,0.047 -3.83272,1.78832 -4.68327,3.54509 -4.44455,9.17981 0.11933,2.81694 -0.14884,5.55277 -0.5958,6.07965 -1.27007,1.4968 -8.53632,4.19556 -15.15334,5.62803 -8.13761,1.76163 -14.13929,2.24872 -19.93176,1.61776 -4.1872,-0.45614 -5.1283,-0.79284 -7.50773,-2.68596 -7.48169,-5.9526 -6.17275,-10.34153 4.00401,-13.42571 4.61412,-1.39838 5.97244,-1.28772 9.203,0.74994 4.70802,2.96956 3.47564,6.06623 -2.41418,6.06623 -2.39182,0 -4.27157,-1.22827 -3.59118,-2.34659 0.53265,-0.87554 3.02061,-1.09639 3.02061,-0.26817 0,0.28762 0.55964,0.52295 1.24364,0.52295 0.68401,0 1.24365,-0.18825 1.24365,-0.41836 0,-0.91478 -2.12919,-1.67344 -4.69669,-1.67344 -5.00686,0 -5.76243,3.44959 -1.08941,4.97376 4.30231,1.40331 8.65806,0.64202 10.80518,-1.88848 1.2614,-1.48664 -0.38735,-4.30308 -3.47983,-5.94439 -1.96839,-1.04469 -3.40164,-1.32407 -6.78474,-1.32252 -4.97975,0 -8.42626,1.1243 -11.655,3.79428 -1.7893,1.47965 -2.16876,2.34971 -2.16876,4.9725 0,2.83786 0.31666,3.44068 2.9509,5.6174 2.69043,2.22317 2.78191,2.40532 1.03636,2.06364 -4.44713,-0.87044 -11.54571,-3.49059 -14.29591,-5.27673 -4.00597,-2.6017 -7.2264,-6.35593 -6.86464,-8.00247 0.69317,-3.15477 7.31564,-8.6035 12.74055,-10.4824 2.60077,-0.90078 4.1118,-1.79437 4.2836,-2.53324 0.3433,-1.4765 -1.37058,-1.87011 -6.16723,-1.41642 -5.2223,0.49396 -10.47752,3.55514 -12.44418,7.24878 -2.78727,5.2348 -1.31424,9.66503 4.85868,14.61264 2.96673,2.37787 2.6117,3.26555 -1.47337,3.68366 -5.77498,0.59111 -11.465434,-1.68876 -14.930464,-5.98188 -2.25777,-2.79732 -3.633384,-3.29935 -6.079451,-2.21868 -2.235116,0.98745 -2.250283,3.01666 -0.033,4.4152 2.156634,1.36029 12.611675,4.54991 16.372505,4.99492 1.55233,0.18371 4.80826,0.0334 7.23541,-0.33377 3.92394,-0.59373 4.76347,-0.56269 7.57525,0.28014 1.73924,0.52136 5.14824,1.45816 7.57557,2.08176 l 4.41332,1.13388 -2.10999,1.58164 c -4.10773,3.07913 -5.1117,6.99553 -2.58373,10.07897 1.43723,1.75305 5.69672,3.67085 8.16005,3.67404 2.31718,0.004 6.4699,-2.85825 5.82003,-4.00999 -0.98861,-1.75218 -3.00658,-2.78644 -5.43671,-2.78644 l -2.40504,0 2.25782,1.225 c 2.37168,1.28671 2.33623,2.70457 -0.0823,3.28994 -2.08767,0.5053 -6.91669,-2.2017 -7.51477,-4.2126 -0.64097,-2.15501 1.30767,-5.01023 4.6187,-6.76752 1.97865,-1.05011 3.52137,-1.26786 10.88652,-1.53658 5.32301,-0.19423 10.62736,-0.73924 13.97031,-1.43543 10.71695,-2.23183 9.61372,-2.34546 9.75423,1.00457 0.0678,1.61791 0.1862,4.25809 0.263,5.86707 0.098,2.05381 -0.305,3.3534 -1.35275,4.36203 -3.34615,3.22112 -9.46323,2.69696 -10.38763,-0.8901 -0.27835,-1.08009 -0.32122,-1.84723 -0.0953,-1.7047 0.22595,0.14254 0.83065,-0.10302 1.34376,-0.54562 1.3182,-1.1371 3.79105,-0.39451 3.79105,1.13844 0,1.39891 0.97582,1.61571 2.40009,0.53329 1.81536,-1.37972 -1.00645,-3.46549 -4.68835,-3.46549 -3.8708,0 -6.56322,4.18352 -4.36204,6.77772 0.8322,0.98081 4.88979,2.11243 7.57427,2.11243 2.06107,0 6.93915,-2.79251 8.18075,-4.68313 l 1.01807,-1.55027 5.55733,1.76523 c 7.25155,2.30337 7.94918,2.8938 7.94918,6.72786 0,3.64162 1.02552,4.20084 4.12194,2.24781 1.55093,-0.97826 2.0963,-1.87226 2.0963,-3.4363 0,-2.8837 -4.42375,-6.06169 -9.13692,-6.56397 -4.59492,-0.48965 -8.25347,-2.22522 -10.4687,-4.96623 -2.01303,-2.4908 -1.97498,-4.97271 0.10833,-7.05982 3.54009,-3.54664 11.68287,-7.62704 20.03117,-10.03775 4.1977,-1.21211 4.93946,-1.27697 7.99753,-0.69909 1.8539,0.35034 4.23058,0.99235 5.28152,1.4267 2.6727,1.10455 5.25641,3.9189 5.25641,5.72559 0,3.1871 -4.6853,4.9997 -7.81721,3.02425 -1.65704,-1.04516 -1.64737,-2.02106 0.0362,-3.64167 1.67129,-1.60884 0.0712,-1.72765 -1.70653,-0.12671 -1.76047,1.58528 -1.62023,3.33642 0.36752,4.59015 3.04383,1.9199 8.33653,0.9652 10.68125,-1.92667 1.07965,-1.3316 1.07638,-1.4881 -0.0742,-3.5643 z"
               id="path4960" />
            <path
               id="path4962"
               d="m 571.83355,160.17216 c 2.2085,-3.98508 8.48708,-7.02263 14.56889,-7.04832 2.72602,-0.0113 11.30874,2.41364 15.01193,4.24188 3.14131,1.55081 4.24096,1.25613 4.24096,-1.13652 0,-2.59659 -2.39105,-5.67046 -5.83095,-7.49614 -2.5532,-1.35508 -6.4283,-1.93856 -5.31263,-0.79994 0.34872,0.3559 -0.0257,0.50258 -0.98743,0.38686 -2.36335,-0.28428 -2.26552,-2.12645 0.17178,-3.23492 2.76203,-1.25615 7.45292,-1.23451 10.19953,0.047 3.83272,1.78832 4.68327,3.54509 4.44455,9.17981 -0.11933,2.81694 0.14884,5.55277 0.5958,6.07965 1.27007,1.4968 8.53632,4.19556 15.15334,5.62803 8.13761,1.76163 14.13929,2.24872 19.93176,1.61776 4.1872,-0.45614 5.1283,-0.79284 7.50773,-2.68596 7.48169,-5.9526 6.17275,-10.34153 -4.00401,-13.42571 -4.61412,-1.39838 -5.97244,-1.28772 -9.203,0.74994 -4.70802,2.96956 -3.47564,6.06623 2.41418,6.06623 2.39182,0 4.27157,-1.22827 3.59118,-2.34659 -0.53265,-0.87554 -3.02061,-1.09639 -3.02061,-0.26817 0,0.28762 -0.55964,0.52295 -1.24364,0.52295 -0.68401,0 -1.24365,-0.18825 -1.24365,-0.41836 0,-0.91478 2.12919,-1.67344 4.69669,-1.67344 5.00686,0 5.76243,3.44959 1.08941,4.97376 -4.30231,1.40331 -8.65806,0.64202 -10.80518,-1.88848 -1.2614,-1.48664 0.38735,-4.30308 3.47983,-5.94439 1.96839,-1.04469 3.40164,-1.32407 6.78474,-1.32252 4.97975,0 8.42626,1.1243 11.655,3.79428 1.7893,1.47965 2.16876,2.34971 2.16876,4.9725 0,2.83786 -0.31666,3.44068 -2.9509,5.6174 -2.69043,2.22317 -2.78191,2.40532 -1.03636,2.06364 4.44713,-0.87044 11.54571,-3.49059 14.29591,-5.27673 4.00597,-2.6017 7.2264,-6.35593 6.86464,-8.00247 -0.69317,-3.15477 -7.31564,-8.6035 -12.74055,-10.4824 -2.60077,-0.90078 -4.1118,-1.79437 -4.2836,-2.53324 -0.3433,-1.4765 1.37058,-1.87011 6.16723,-1.41642 5.2223,0.49396 10.47752,3.55514 12.44418,7.24878 2.78727,5.2348 1.31424,9.66503 -4.85868,14.61264 -2.96673,2.37787 -2.6117,3.26555 1.47337,3.68366 5.77498,0.59111 11.46543,-1.68876 14.93046,-5.98188 2.25777,-2.79732 3.63338,-3.29935 6.07945,-2.21868 2.23512,0.98745 2.25028,3.01666 0.033,4.4152 -2.15663,1.36029 -12.61167,4.54991 -16.3725,4.99492 -1.55233,0.18371 -4.80826,0.0334 -7.23541,-0.33377 -3.92394,-0.59373 -4.76347,-0.56269 -7.57525,0.28014 -1.73924,0.52136 -5.14824,1.45816 -7.57557,2.08176 l -4.41332,1.13388 2.10999,1.58164 c 4.10773,3.07913 5.1117,6.99553 2.58373,10.07897 -1.43723,1.75305 -5.69672,3.67085 -8.16005,3.67404 -2.31718,0.004 -6.4699,-2.85825 -5.82003,-4.00999 0.98861,-1.75218 3.00658,-2.78644 5.43671,-2.78644 l 2.40504,0 -2.25782,1.225 c -2.37168,1.28671 -2.33623,2.70457 0.0823,3.28994 2.08767,0.5053 6.91669,-2.2017 7.51477,-4.2126 0.64097,-2.15501 -1.30767,-5.01023 -4.6187,-6.76752 -1.97865,-1.05011 -3.52137,-1.26786 -10.88652,-1.53658 -5.32301,-0.19423 -10.62736,-0.73924 -13.97031,-1.43543 -10.71695,-2.23183 -9.61372,-2.34546 -9.75423,1.00457 -0.0678,1.61791 -0.1862,4.25809 -0.263,5.86707 -0.098,2.05381 0.305,3.3534 1.35275,4.36203 3.34615,3.22112 9.46323,2.69696 10.38763,-0.8901 0.27835,-1.08009 0.32122,-1.84723 0.0953,-1.7047 -0.22595,0.14254 -0.83065,-0.10302 -1.34376,-0.54562 -1.3182,-1.1371 -3.79105,-0.39451 -3.79105,1.13844 0,1.39891 -0.97582,1.61571 -2.40009,0.53329 -1.81536,-1.37972 1.00645,-3.46549 4.68835,-3.46549 3.8708,0 6.56322,4.18352 4.36204,6.77772 -0.8322,0.98081 -4.88979,2.11243 -7.57427,2.11243 -2.06107,0 -6.93915,-2.79251 -8.18075,-4.68313 l -1.01807,-1.55027 -5.55733,1.76523 c -7.25155,2.30337 -7.94918,2.8938 -7.94918,6.72786 0,3.64162 -1.02552,4.20084 -4.12194,2.24781 -1.55093,-0.97826 -2.0963,-1.87226 -2.0963,-3.4363 0,-2.8837 4.42375,-6.06169 9.13692,-6.56397 4.59492,-0.48965 8.25347,-2.22522 10.4687,-4.96623 2.01303,-2.4908 1.97498,-4.97271 -0.10833,-7.05982 -3.54009,-3.54664 -11.68287,-7.62704 -20.03117,-10.03775 -4.19771,-1.21211 -4.93947,-1.27697 -7.99754,-0.69909 -1.8539,0.35034 -4.23058,0.99235 -5.28152,1.4267 -2.6727,1.10455 -5.25641,3.9189 -5.25641,5.72559 0,3.1871 4.6853,4.9997 7.81721,3.02425 1.65704,-1.04516 1.64737,-2.02106 -0.0362,-3.64167 -1.67129,-1.60884 -0.0712,-1.72765 1.70653,-0.12671 1.76047,1.58528 1.62023,3.33642 -0.36752,4.59015 -3.04383,1.9199 -8.33653,0.9652 -10.68125,-1.92667 -1.07965,-1.3316 -1.07638,-1.4881 0.0742,-3.5643 z"
               style="fill:#000000" />
          </g>
          <g
             id="g4944"
             transform="translate(8.0816325,-21.89645)">
            <path
               id="path4158-7"
               d="m 211.08607,160.17216 c -2.2085,-3.98508 -8.48709,-7.02263 -14.56889,-7.04832 -2.72603,-0.0113 -11.30874,2.41364 -15.01193,4.24188 -3.14131,1.55081 -4.24096,1.25613 -4.24096,-1.13652 0,-2.59659 2.39105,-5.67046 5.83095,-7.49614 2.5532,-1.35508 6.4283,-1.93856 5.31263,-0.79994 -0.34872,0.3559 0.0257,0.50258 0.98743,0.38686 2.36335,-0.28428 2.26552,-2.12645 -0.17178,-3.23492 -2.76203,-1.25615 -7.45292,-1.23451 -10.19953,0.047 -3.83272,1.78832 -4.68327,3.54509 -4.44455,9.17981 0.11933,2.81694 -0.14884,5.55277 -0.5958,6.07965 -1.27007,1.4968 -8.53632,4.19556 -15.15334,5.62803 -8.13761,1.76163 -14.13929,2.24872 -19.93176,1.61776 -4.1872,-0.45614 -5.1283,-0.79284 -7.50773,-2.68596 -7.48169,-5.9526 -6.17275,-10.34153 4.00401,-13.42571 4.61412,-1.39838 5.97244,-1.28772 9.203,0.74994 4.70802,2.96956 3.47564,6.06623 -2.41418,6.06623 -2.39182,0 -4.27157,-1.22827 -3.59118,-2.34659 0.53265,-0.87554 3.02061,-1.09639 3.02061,-0.26817 0,0.28762 0.55964,0.52295 1.24364,0.52295 0.68401,0 1.24365,-0.18825 1.24365,-0.41836 0,-0.91478 -2.12919,-1.67344 -4.69669,-1.67344 -5.00686,0 -5.76243,3.44959 -1.08941,4.97376 4.30231,1.40331 8.65806,0.64202 10.80518,-1.88848 1.2614,-1.48664 -0.38735,-4.30308 -3.47983,-5.94439 -1.96839,-1.04469 -3.40164,-1.32407 -6.78474,-1.32252 -4.97975,0 -8.42626,1.1243 -11.655,3.79428 -1.7893,1.47965 -2.16876,2.34971 -2.16876,4.9725 0,2.83786 0.31666,3.44068 2.9509,5.6174 2.69043,2.22317 2.78191,2.40532 1.03636,2.06364 -4.44713,-0.87044 -11.54571,-3.49059 -14.29591,-5.27673 -4.00597,-2.6017 -7.2264,-6.35593 -6.86464,-8.00247 0.69317,-3.15477 7.31564,-8.6035 12.74055,-10.4824 2.60077,-0.90078 4.1118,-1.79437 4.2836,-2.53324 0.3433,-1.4765 -1.37058,-1.87011 -6.16723,-1.41642 -5.2223,0.49396 -10.47752,3.55514 -12.44418,7.24878 -2.78727,5.2348 -1.31424,9.66503 4.85868,14.61264 2.96673,2.37787 2.6117,3.26555 -1.47337,3.68366 -5.77498,0.59111 -11.465434,-1.68876 -14.930464,-5.98188 -2.25777,-2.79732 -3.633384,-3.29935 -6.079451,-2.21868 -2.235116,0.98745 -2.250283,3.01666 -0.033,4.4152 2.156634,1.36029 12.611675,4.54991 16.372505,4.99492 1.55233,0.18371 4.80826,0.0334 7.23541,-0.33377 3.92394,-0.59373 4.76347,-0.56269 7.57525,0.28014 1.73924,0.52136 5.14824,1.45816 7.57557,2.08176 l 4.41332,1.13388 -2.10999,1.58164 c -4.10773,3.07913 -5.1117,6.99553 -2.58373,10.07897 1.43723,1.75305 5.69672,3.67085 8.16005,3.67404 2.31718,0.004 6.4699,-2.85825 5.82003,-4.00999 -0.98861,-1.75218 -3.00658,-2.78644 -5.43671,-2.78644 l -2.40504,0 2.25782,1.225 c 2.37168,1.28671 2.33623,2.70457 -0.0823,3.28994 -2.08767,0.5053 -6.91669,-2.2017 -7.51477,-4.2126 -0.64097,-2.15501 1.30767,-5.01023 4.6187,-6.76752 1.97865,-1.05011 3.52137,-1.26786 10.88652,-1.53658 5.32301,-0.19423 10.62736,-0.73924 13.97031,-1.43543 10.71695,-2.23183 9.61372,-2.34546 9.75423,1.00457 0.0678,1.61791 0.1862,4.25809 0.263,5.86707 0.098,2.05381 -0.305,3.3534 -1.35275,4.36203 -3.34615,3.22112 -9.46323,2.69696 -10.38763,-0.8901 -0.27835,-1.08009 -0.32122,-1.84723 -0.0953,-1.7047 0.22595,0.14254 0.83065,-0.10302 1.34376,-0.54562 1.3182,-1.1371 3.79105,-0.39451 3.79105,1.13844 0,1.39891 0.97582,1.61571 2.40009,0.53329 1.81536,-1.37972 -1.00645,-3.46549 -4.68835,-3.46549 -3.8708,0 -6.56322,4.18352 -4.36204,6.77772 0.8322,0.98081 4.88979,2.11243 7.57427,2.11243 2.06107,0 6.93915,-2.79251 8.18075,-4.68313 l 1.01807,-1.55027 5.55733,1.76523 c 7.25155,2.30337 7.94918,2.8938 7.94918,6.72786 0,3.64162 1.02552,4.20084 4.12194,2.24781 1.55093,-0.97826 2.0963,-1.87226 2.0963,-3.4363 0,-2.8837 -4.42375,-6.06169 -9.13692,-6.56397 -4.59492,-0.48965 -8.25347,-2.22522 -10.4687,-4.96623 -2.01303,-2.4908 -1.97498,-4.97271 0.10833,-7.05982 3.54009,-3.54664 11.68287,-7.62704 20.03117,-10.03775 4.1977,-1.21211 4.93946,-1.27697 7.99753,-0.69909 1.8539,0.35034 4.23058,0.99235 5.28152,1.4267 2.6727,1.10455 5.25641,3.9189 5.25641,5.72559 0,3.1871 -4.6853,4.9997 -7.81721,3.02425 -1.65704,-1.04516 -1.64737,-2.02106 0.0362,-3.64167 1.67129,-1.60884 0.0712,-1.72765 -1.70653,-0.12671 -1.76047,1.58528 -1.62023,3.33642 0.36752,4.59015 3.04383,1.9199 8.33653,0.9652 10.68125,-1.92667 1.07965,-1.3316 1.07638,-1.4881 -0.0742,-3.5643 z"
               style="fill:#000000" />
            <path
               style="fill:#000000"
               d="m 571.83355,160.17216 c 2.2085,-3.98508 8.48708,-7.02263 14.56889,-7.04832 2.72602,-0.0113 11.30874,2.41364 15.01193,4.24188 3.14131,1.55081 4.24096,1.25613 4.24096,-1.13652 0,-2.59659 -2.39105,-5.67046 -5.83095,-7.49614 -2.5532,-1.35508 -6.4283,-1.93856 -5.31263,-0.79994 0.34872,0.3559 -0.0257,0.50258 -0.98743,0.38686 -2.36335,-0.28428 -2.26552,-2.12645 0.17178,-3.23492 2.76203,-1.25615 7.45292,-1.23451 10.19953,0.047 3.83272,1.78832 4.68327,3.54509 4.44455,9.17981 -0.11933,2.81694 0.14884,5.55277 0.5958,6.07965 1.27007,1.4968 8.53632,4.19556 15.15334,5.62803 8.13761,1.76163 14.13929,2.24872 19.93176,1.61776 4.1872,-0.45614 5.1283,-0.79284 7.50773,-2.68596 7.48169,-5.9526 6.17275,-10.34153 -4.00401,-13.42571 -4.61412,-1.39838 -5.97244,-1.28772 -9.203,0.74994 -4.70802,2.96956 -3.47564,6.06623 2.41418,6.06623 2.39182,0 4.27157,-1.22827 3.59118,-2.34659 -0.53265,-0.87554 -3.02061,-1.09639 -3.02061,-0.26817 0,0.28762 -0.55964,0.52295 -1.24364,0.52295 -0.68401,0 -1.24365,-0.18825 -1.24365,-0.41836 0,-0.91478 2.12919,-1.67344 4.69669,-1.67344 5.00686,0 5.76243,3.44959 1.08941,4.97376 -4.30231,1.40331 -8.65806,0.64202 -10.80518,-1.88848 -1.2614,-1.48664 0.38735,-4.30308 3.47983,-5.94439 1.96839,-1.04469 3.40164,-1.32407 6.78474,-1.32252 4.97975,0 8.42626,1.1243 11.655,3.79428 1.7893,1.47965 2.16876,2.34971 2.16876,4.9725 0,2.83786 -0.31666,3.44068 -2.9509,5.6174 -2.69043,2.22317 -2.78191,2.40532 -1.03636,2.06364 4.44713,-0.87044 11.54571,-3.49059 14.29591,-5.27673 4.00597,-2.6017 7.2264,-6.35593 6.86464,-8.00247 -0.69317,-3.15477 -7.31564,-8.6035 -12.74055,-10.4824 -2.60077,-0.90078 -4.1118,-1.79437 -4.2836,-2.53324 -0.3433,-1.4765 1.37058,-1.87011 6.16723,-1.41642 5.2223,0.49396 10.47752,3.55514 12.44418,7.24878 2.78727,5.2348 1.31424,9.66503 -4.85868,14.61264 -2.96673,2.37787 -2.6117,3.26555 1.47337,3.68366 5.77498,0.59111 11.46543,-1.68876 14.93046,-5.98188 2.25777,-2.79732 3.63338,-3.29935 6.07945,-2.21868 2.23512,0.98745 2.25028,3.01666 0.033,4.4152 -2.15663,1.36029 -12.61167,4.54991 -16.3725,4.99492 -1.55233,0.18371 -4.80826,0.0334 -7.23541,-0.33377 -3.92394,-0.59373 -4.76347,-0.56269 -7.57525,0.28014 -1.73924,0.52136 -5.14824,1.45816 -7.57557,2.08176 l -4.41332,1.13388 2.10999,1.58164 c 4.10773,3.07913 5.1117,6.99553 2.58373,10.07897 -1.43723,1.75305 -5.69672,3.67085 -8.16005,3.67404 -2.31718,0.004 -6.4699,-2.85825 -5.82003,-4.00999 0.98861,-1.75218 3.00658,-2.78644 5.43671,-2.78644 l 2.40504,0 -2.25782,1.225 c -2.37168,1.28671 -2.33623,2.70457 0.0823,3.28994 2.08767,0.5053 6.91669,-2.2017 7.51477,-4.2126 0.64097,-2.15501 -1.30767,-5.01023 -4.6187,-6.76752 -1.97865,-1.05011 -3.52137,-1.26786 -10.88652,-1.53658 -5.32301,-0.19423 -10.62736,-0.73924 -13.97031,-1.43543 -10.71695,-2.23183 -9.61372,-2.34546 -9.75423,1.00457 -0.0678,1.61791 -0.1862,4.25809 -0.263,5.86707 -0.098,2.05381 0.305,3.3534 1.35275,4.36203 3.34615,3.22112 9.46323,2.69696 10.38763,-0.8901 0.27835,-1.08009 0.32122,-1.84723 0.0953,-1.7047 -0.22595,0.14254 -0.83065,-0.10302 -1.34376,-0.54562 -1.3182,-1.1371 -3.79105,-0.39451 -3.79105,1.13844 0,1.39891 -0.97582,1.61571 -2.40009,0.53329 -1.81536,-1.37972 1.00645,-3.46549 4.68835,-3.46549 3.8708,0 6.56322,4.18352 4.36204,6.77772 -0.8322,0.98081 -4.88979,2.11243 -7.57427,2.11243 -2.06107,0 -6.93915,-2.79251 -8.18075,-4.68313 l -1.01807,-1.55027 -5.55733,1.76523 c -7.25155,2.30337 -7.94918,2.8938 -7.94918,6.72786 0,3.64162 -1.02552,4.20084 -4.12194,2.24781 -1.55093,-0.97826 -2.0963,-1.87226 -2.0963,-3.4363 0,-2.8837 4.42375,-6.06169 9.13692,-6.56397 4.59492,-0.48965 8.25347,-2.22522 10.4687,-4.96623 2.01303,-2.4908 1.97498,-4.97271 -0.10833,-7.05982 -3.54009,-3.54664 -11.68287,-7.62704 -20.03117,-10.03775 -4.19771,-1.21211 -4.93947,-1.27697 -7.99754,-0.69909 -1.8539,0.35034 -4.23058,0.99235 -5.28152,1.4267 -2.6727,1.10455 -5.25641,3.9189 -5.25641,5.72559 0,3.1871 4.6853,4.9997 7.81721,3.02425 1.65704,-1.04516 1.64737,-2.02106 -0.0362,-3.64167 -1.67129,-1.60884 -0.0712,-1.72765 1.70653,-0.12671 1.76047,1.58528 1.62023,3.33642 -0.36752,4.59015 -3.04383,1.9199 -8.33653,0.9652 -10.68125,-1.92667 -1.07965,-1.3316 -1.07638,-1.4881 0.0742,-3.5643 z"
               id="path4834" />
          </g>
        </g>
        <g
           transform="translate(0,-1.2709293)"
           id="g4999">
          <g
             id="g4989"
             transform="translate(-1.855e-4,-3.4683524e-6)">
            <path
               style="fill:#000000"
               d="m 78.179112,276.14971 c -3.98508,-2.2085 -7.02263,-8.48709 -7.04832,-14.56889 -0.0113,-2.72603 2.41364,-11.30874 4.24188,-15.01193 1.55081,-3.14131 1.25613,-4.24096 -1.13652,-4.24096 -2.59659,0 -5.67046,2.39105 -7.49614,5.83095 -1.35508,2.5532 -1.93856,6.4283 -0.79994,5.31263 0.3559,-0.34872 0.50258,0.0257 0.38686,0.98743 -0.28428,2.36335 -2.12645,2.26552 -3.23492,-0.17178 -1.25615,-2.76203 -1.23451,-7.45292 0.047,-10.19953 1.78832,-3.83272 3.54509,-4.68327 9.17981,-4.44455 2.81694,0.11933 5.55277,-0.14884 6.07965,-0.5958 1.4968,-1.27007 4.195563,-8.53632 5.628033,-15.15334 1.76163,-8.13761 2.24872,-14.13929 1.61776,-19.93176 -0.45614,-4.1872 -0.79284,-5.1283 -2.68596,-7.50773 -5.952603,-7.48169 -10.341533,-6.17275 -13.425713,4.00401 -1.39838,4.61412 -1.28772,5.97244 0.74994,9.203 2.96956,4.70802 6.06623,3.47564 6.06623,-2.41418 0,-2.39182 -1.22827,-4.27157 -2.34659,-3.59118 -0.87554,0.53265 -1.09639,3.02061 -0.26817,3.02061 0.28762,0 0.52295,0.55964 0.52295,1.24364 0,0.68401 -0.18825,1.24365 -0.41836,1.24365 -0.91478,0 -1.67344,-2.12919 -1.67344,-4.69669 0,-5.00686 3.44959,-5.76243 4.97376,-1.08941 1.40331,4.30231 0.64202,8.65806 -1.88848,10.80518 -1.48664,1.2614 -4.30308,-0.38735 -5.94439,-3.47983 -1.04469,-1.96839 -1.32407,-3.40164 -1.32252,-6.78474 0,-4.97975 1.1243,-8.42626 3.79428,-11.655 1.47965,-1.7893 2.34971,-2.16876 4.9725,-2.16876 2.83786,0 3.44068,0.31666 5.617403,2.9509 2.22317,2.69043 2.40532,2.78191 2.06364,1.03636 -0.87044,-4.44713 -3.490593,-11.54571 -5.276733,-14.29591 -2.6017,-4.00597 -6.35593,-7.2264 -8.00247,-6.86464 -3.15477,0.69317 -8.6035,7.31564 -10.4824,12.74055 -0.90078,2.60077 -1.79437,4.1118 -2.53324,4.2836 -1.4765,0.3433 -1.87011,-1.37058 -1.41642,-6.16723 0.49396,-5.2223 3.55514,-10.47752 7.24878,-12.44419 5.2348,-2.78727 9.66503,-1.31424 14.61264,4.85869 2.37787,2.96673 3.265553,2.6117 3.683663,-1.47337 0.59111,-5.77499 -1.688763,-11.46544 -5.981883,-14.93047 -2.79732,-2.25777 -3.29935,-3.63338 -2.21868,-6.07945 0.98745,-2.23511 3.01666,-2.25028 4.4152,-0.033 1.36029,2.15664 4.549913,12.61167 4.994923,16.3725 0.18371,1.55233 0.0334,4.80827 -0.33377,7.23542 -0.59373,3.92394 -0.56269,4.76347 0.28014,7.57525 0.52136,1.73924 1.45816,5.14824 2.08176,7.57557 l 1.13388,4.41332 1.58164,-2.10999 c 3.07913,-4.10773 6.99553,-5.1117 10.078973,-2.58373 1.753052,1.43723 3.670852,5.69672 3.674042,8.16005 0.004,2.31718 -2.858252,6.4699 -4.009992,5.82003 -1.752183,-0.98861 -2.786443,-3.00658 -2.786443,-5.43671 l 0,-2.40504 1.225,2.25782 c 1.28671,2.37168 2.704573,2.33623 3.289943,-0.0823 0.505302,-2.08767 -2.201703,-6.91669 -4.212603,-7.51477 -2.15501,-0.64097 -5.01023,1.30767 -6.76752,4.6187 -1.05011,1.97865 -1.26786,3.52137 -1.53658,10.88652 -0.19423,5.32301 -0.73924,10.62736 -1.43543,13.97031 -2.23183,10.71695 -2.34546,9.61372 1.00457,9.75423 1.61791,0.0678 4.25809,0.1862 5.86707,0.263 2.05381,0.098 3.3534,-0.305 4.36203,-1.35275 3.221125,-3.34615 2.696963,-9.46323 -0.8901,-10.38763 -1.08009,-0.27835 -1.84723,-0.32122 -1.7047,-0.0953 0.14254,0.22595 -0.10302,0.83065 -0.54562,1.34376 -1.1371,1.3182 -0.39451,3.79105 1.13844,3.79105 1.39891,0 1.61571,0.97582 0.53329,2.40009 -1.37972,1.81536 -3.46549,-1.00645 -3.46549,-4.68835 0,-3.8708 4.18352,-6.56322 6.777723,-4.36204 0.98081,0.8322 2.112432,4.88979 2.112432,7.57427 0,2.06107 -2.792512,6.93915 -4.683135,8.18075 l -1.55027,1.01807 1.76523,5.55733 c 2.303373,7.25155 2.893803,7.94918 6.727865,7.94918 3.64162,0 4.20084,1.02552 2.24781,4.12194 -0.97826,1.55093 -1.87226,2.0963 -3.4363,2.0963 -2.883702,0 -6.061695,-4.42375 -6.563975,-9.13692 -0.48965,-4.59492 -2.22522,-8.25347 -4.96623,-10.4687 -2.4908,-2.01303 -4.97271,-1.97498 -7.05982,0.10833 -3.546643,3.54009 -7.627043,11.68287 -10.037753,20.03117 -1.21211,4.1977 -1.27697,4.93946 -0.69909,7.99753 0.35034,1.8539 0.99235,4.23058 1.4267,5.28152 1.10455,2.6727 3.9189,5.25641 5.72559,5.25641 3.187103,0 4.999703,-4.6853 3.024253,-7.81721 -1.04516,-1.65704 -2.021063,-1.64737 -3.641673,0.0362 -1.60884,1.67129 -1.72765,0.0712 -0.12671,-1.70653 1.58528,-1.76047 3.336423,-1.62023 4.590153,0.36752 1.9199,3.04383 0.9652,8.33653 -1.92667,10.68125 -1.331603,1.07965 -1.488103,1.07638 -3.564303,-0.0742 z"
               id="path4856" />
            <path
               id="path4987"
               d="m 720.90524,276.14971 c 3.98508,-2.2085 7.02263,-8.48709 7.04832,-14.56889 0.0113,-2.72603 -2.41364,-11.30874 -4.24188,-15.01193 -1.55081,-3.14131 -1.25613,-4.24096 1.13652,-4.24096 2.59659,0 5.67046,2.39105 7.49614,5.83095 1.35508,2.5532 1.93856,6.4283 0.79994,5.31263 -0.3559,-0.34872 -0.50258,0.0257 -0.38686,0.98743 0.28428,2.36335 2.12645,2.26552 3.23492,-0.17178 1.25615,-2.76203 1.23451,-7.45292 -0.047,-10.19953 -1.78832,-3.83272 -3.54509,-4.68327 -9.17981,-4.44455 -2.81694,0.11933 -5.55277,-0.14884 -6.07965,-0.5958 -1.4968,-1.27007 -4.19556,-8.53632 -5.62803,-15.15334 -1.76163,-8.13761 -2.24872,-14.13929 -1.61776,-19.93176 0.45614,-4.1872 0.79284,-5.1283 2.68596,-7.50773 5.9526,-7.48169 10.34153,-6.17275 13.42571,4.00401 1.39838,4.61412 1.28772,5.97244 -0.74994,9.203 -2.96956,4.70802 -6.06623,3.47564 -6.06623,-2.41418 0,-2.39182 1.22827,-4.27157 2.34659,-3.59118 0.87554,0.53265 1.09639,3.02061 0.26817,3.02061 -0.28762,0 -0.52295,0.55964 -0.52295,1.24364 0,0.68401 0.18825,1.24365 0.41836,1.24365 0.91478,0 1.67344,-2.12919 1.67344,-4.69669 0,-5.00686 -3.44959,-5.76243 -4.97376,-1.08941 -1.40331,4.30231 -0.64202,8.65806 1.88848,10.80518 1.48664,1.2614 4.30308,-0.38735 5.94439,-3.47983 1.04469,-1.96839 1.32407,-3.40164 1.32252,-6.78474 0,-4.97975 -1.1243,-8.42626 -3.79428,-11.655 -1.47965,-1.7893 -2.34971,-2.16876 -4.9725,-2.16876 -2.83786,0 -3.44068,0.31666 -5.6174,2.9509 -2.22317,2.69043 -2.40532,2.78191 -2.06364,1.03636 0.87044,-4.44713 3.49059,-11.54571 5.27673,-14.29591 2.6017,-4.00597 6.35593,-7.2264 8.00247,-6.86464 3.15477,0.69317 8.6035,7.31564 10.4824,12.74055 0.90078,2.60077 1.79437,4.1118 2.53324,4.2836 1.4765,0.3433 1.87011,-1.37058 1.41642,-6.16723 -0.49396,-5.2223 -3.55514,-10.47752 -7.24878,-12.44419 -5.2348,-2.78727 -9.66503,-1.31424 -14.61264,4.85869 -2.37787,2.96673 -3.26555,2.6117 -3.68366,-1.47337 -0.59111,-5.77499 1.68876,-11.46544 5.98188,-14.93047 2.79732,-2.25777 3.29935,-3.63338 2.21868,-6.07945 -0.98745,-2.23511 -3.01666,-2.25028 -4.4152,-0.033 -1.36029,2.15664 -4.54991,12.61167 -4.99492,16.3725 -0.18371,1.55233 -0.0334,4.80827 0.33377,7.23542 0.59373,3.92394 0.56269,4.76347 -0.28014,7.57525 -0.52136,1.73924 -1.45816,5.14824 -2.08176,7.57557 l -1.13388,4.41332 -1.58164,-2.10999 c -3.07913,-4.10773 -6.99553,-5.1117 -10.07898,-2.58373 -1.75305,1.43723 -3.67085,5.69672 -3.67404,8.16005 -0.004,2.31718 2.85825,6.4699 4.00999,5.82003 1.75219,-0.98861 2.78645,-3.00658 2.78645,-5.43671 l 0,-2.40504 -1.225,2.25782 c -1.28671,2.37168 -2.70458,2.33623 -3.28995,-0.0823 -0.5053,-2.08767 2.20171,-6.91669 4.21261,-7.51477 2.15501,-0.64097 5.01023,1.30767 6.76752,4.6187 1.05011,1.97865 1.26786,3.52137 1.53658,10.88652 0.19423,5.32301 0.73924,10.62736 1.43543,13.97031 2.23183,10.71695 2.34546,9.61372 -1.00457,9.75423 -1.61791,0.0678 -4.25809,0.1862 -5.86707,0.263 -2.05381,0.098 -3.3534,-0.305 -4.36203,-1.35275 -3.22113,-3.34615 -2.69697,-9.46323 0.8901,-10.38763 1.08009,-0.27835 1.84723,-0.32122 1.7047,-0.0953 -0.14254,0.22595 0.10302,0.83065 0.54562,1.34376 1.1371,1.3182 0.39451,3.79105 -1.13844,3.79105 -1.39891,0 -1.61571,0.97582 -0.53329,2.40009 1.37972,1.81536 3.46549,-1.00645 3.46549,-4.68835 0,-3.8708 -4.18352,-6.56322 -6.77773,-4.36204 -0.98081,0.8322 -2.11243,4.88979 -2.11243,7.57427 0,2.06107 2.79251,6.93915 4.68314,8.18075 l 1.55027,1.01807 -1.76523,5.55733 c -2.30338,7.25155 -2.89381,7.94918 -6.72787,7.94918 -3.64162,0 -4.20084,1.02552 -2.24781,4.12194 0.97826,1.55093 1.87226,2.0963 3.4363,2.0963 2.8837,0 6.0617,-4.42375 6.56398,-9.13692 0.48965,-4.59492 2.22522,-8.25347 4.96623,-10.4687 2.4908,-2.01303 4.97271,-1.97498 7.05982,0.10833 3.54664,3.54009 7.62704,11.68287 10.03775,20.03117 1.21211,4.1977 1.27697,4.93946 0.69909,7.99753 -0.35034,1.8539 -0.99235,4.23058 -1.4267,5.28152 -1.10455,2.6727 -3.9189,5.25641 -5.72559,5.25641 -3.1871,0 -4.9997,-4.6853 -3.02425,-7.81721 1.04516,-1.65704 2.02106,-1.64737 3.64167,0.0362 1.60884,1.67129 1.72765,0.0712 0.12671,-1.70653 -1.58528,-1.76047 -3.33642,-1.62023 -4.59015,0.36752 -1.9199,3.04383 -0.9652,8.33653 1.92667,10.68125 1.3316,1.07965 1.4881,1.07638 3.5643,-0.0742 z"
               style="fill:#000000" />
          </g>
          <g
             transform="matrix(1,0,0,-1,-1.855e-4,1140.1901)"
             id="g4993">
            <path
               id="path4995"
               d="m 78.179112,276.14971 c -3.98508,-2.2085 -7.02263,-8.48709 -7.04832,-14.56889 -0.0113,-2.72603 2.41364,-11.30874 4.24188,-15.01193 1.55081,-3.14131 1.25613,-4.24096 -1.13652,-4.24096 -2.59659,0 -5.67046,2.39105 -7.49614,5.83095 -1.35508,2.5532 -1.93856,6.4283 -0.79994,5.31263 0.3559,-0.34872 0.50258,0.0257 0.38686,0.98743 -0.28428,2.36335 -2.12645,2.26552 -3.23492,-0.17178 -1.25615,-2.76203 -1.23451,-7.45292 0.047,-10.19953 1.78832,-3.83272 3.54509,-4.68327 9.17981,-4.44455 2.81694,0.11933 5.55277,-0.14884 6.07965,-0.5958 1.4968,-1.27007 4.195563,-8.53632 5.628033,-15.15334 1.76163,-8.13761 2.24872,-14.13929 1.61776,-19.93176 -0.45614,-4.1872 -0.79284,-5.1283 -2.68596,-7.50773 -5.952603,-7.48169 -10.341533,-6.17275 -13.425713,4.00401 -1.39838,4.61412 -1.28772,5.97244 0.74994,9.203 2.96956,4.70802 6.06623,3.47564 6.06623,-2.41418 0,-2.39182 -1.22827,-4.27157 -2.34659,-3.59118 -0.87554,0.53265 -1.09639,3.02061 -0.26817,3.02061 0.28762,0 0.52295,0.55964 0.52295,1.24364 0,0.68401 -0.18825,1.24365 -0.41836,1.24365 -0.91478,0 -1.67344,-2.12919 -1.67344,-4.69669 0,-5.00686 3.44959,-5.76243 4.97376,-1.08941 1.40331,4.30231 0.64202,8.65806 -1.88848,10.80518 -1.48664,1.2614 -4.30308,-0.38735 -5.94439,-3.47983 -1.04469,-1.96839 -1.32407,-3.40164 -1.32252,-6.78474 0,-4.97975 1.1243,-8.42626 3.79428,-11.655 1.47965,-1.7893 2.34971,-2.16876 4.9725,-2.16876 2.83786,0 3.44068,0.31666 5.617403,2.9509 2.22317,2.69043 2.40532,2.78191 2.06364,1.03636 -0.87044,-4.44713 -3.490593,-11.54571 -5.276733,-14.29591 -2.6017,-4.00597 -6.35593,-7.2264 -8.00247,-6.86464 -3.15477,0.69317 -8.6035,7.31564 -10.4824,12.74055 -0.90078,2.60077 -1.79437,4.1118 -2.53324,4.2836 -1.4765,0.3433 -1.87011,-1.37058 -1.41642,-6.16723 0.49396,-5.2223 3.55514,-10.47752 7.24878,-12.44419 5.2348,-2.78727 9.66503,-1.31424 14.61264,4.85869 2.37787,2.96673 3.265553,2.6117 3.683663,-1.47337 0.59111,-5.77499 -1.688763,-11.46544 -5.981883,-14.93047 -2.79732,-2.25777 -3.29935,-3.63338 -2.21868,-6.07945 0.98745,-2.23511 3.01666,-2.25028 4.4152,-0.033 1.36029,2.15664 4.549913,12.61167 4.994923,16.3725 0.18371,1.55233 0.0334,4.80827 -0.33377,7.23542 -0.59373,3.92394 -0.56269,4.76347 0.28014,7.57525 0.52136,1.73924 1.45816,5.14824 2.08176,7.57557 l 1.13388,4.41332 1.58164,-2.10999 c 3.07913,-4.10773 6.99553,-5.1117 10.078973,-2.58373 1.753052,1.43723 3.670852,5.69672 3.674042,8.16005 0.004,2.31718 -2.858252,6.4699 -4.009992,5.82003 -1.752183,-0.98861 -2.786443,-3.00658 -2.786443,-5.43671 l 0,-2.40504 1.225,2.25782 c 1.28671,2.37168 2.704573,2.33623 3.289943,-0.0823 0.505302,-2.08767 -2.201703,-6.91669 -4.212603,-7.51477 -2.15501,-0.64097 -5.01023,1.30767 -6.76752,4.6187 -1.05011,1.97865 -1.26786,3.52137 -1.53658,10.88652 -0.19423,5.32301 -0.73924,10.62736 -1.43543,13.97031 -2.23183,10.71695 -2.34546,9.61372 1.00457,9.75423 1.61791,0.0678 4.25809,0.1862 5.86707,0.263 2.05381,0.098 3.3534,-0.305 4.36203,-1.35275 3.221125,-3.34615 2.696963,-9.46323 -0.8901,-10.38763 -1.08009,-0.27835 -1.84723,-0.32122 -1.7047,-0.0953 0.14254,0.22595 -0.10302,0.83065 -0.54562,1.34376 -1.1371,1.3182 -0.39451,3.79105 1.13844,3.79105 1.39891,0 1.61571,0.97582 0.53329,2.40009 -1.37972,1.81536 -3.46549,-1.00645 -3.46549,-4.68835 0,-3.8708 4.18352,-6.56322 6.777723,-4.36204 0.98081,0.8322 2.112432,4.88979 2.112432,7.57427 0,2.06107 -2.792512,6.93915 -4.683135,8.18075 l -1.55027,1.01807 1.76523,5.55733 c 2.303373,7.25155 2.893803,7.94918 6.727865,7.94918 3.64162,0 4.20084,1.02552 2.24781,4.12194 -0.97826,1.55093 -1.87226,2.0963 -3.4363,2.0963 -2.883702,0 -6.061695,-4.42375 -6.563975,-9.13692 -0.48965,-4.59492 -2.22522,-8.25347 -4.96623,-10.4687 -2.4908,-2.01303 -4.97271,-1.97498 -7.05982,0.10833 -3.546643,3.54009 -7.627043,11.68287 -10.037753,20.03117 -1.21211,4.1977 -1.27697,4.93946 -0.69909,7.99753 0.35034,1.8539 0.99235,4.23058 1.4267,5.28152 1.10455,2.6727 3.9189,5.25641 5.72559,5.25641 3.187103,0 4.999703,-4.6853 3.024253,-7.81721 -1.04516,-1.65704 -2.021063,-1.64737 -3.641673,0.0362 -1.60884,1.67129 -1.72765,0.0712 -0.12671,-1.70653 1.58528,-1.76047 3.336423,-1.62023 4.590153,0.36752 1.9199,3.04383 0.9652,8.33653 -1.92667,10.68125 -1.331603,1.07965 -1.488103,1.07638 -3.564303,-0.0742 z"
               style="fill:#000000" />
            <path
               style="fill:#000000"
               d="m 720.90524,276.14971 c 3.98508,-2.2085 7.02263,-8.48709 7.04832,-14.56889 0.0113,-2.72603 -2.41364,-11.30874 -4.24188,-15.01193 -1.55081,-3.14131 -1.25613,-4.24096 1.13652,-4.24096 2.59659,0 5.67046,2.39105 7.49614,5.83095 1.35508,2.5532 1.93856,6.4283 0.79994,5.31263 -0.3559,-0.34872 -0.50258,0.0257 -0.38686,0.98743 0.28428,2.36335 2.12645,2.26552 3.23492,-0.17178 1.25615,-2.76203 1.23451,-7.45292 -0.047,-10.19953 -1.78832,-3.83272 -3.54509,-4.68327 -9.17981,-4.44455 -2.81694,0.11933 -5.55277,-0.14884 -6.07965,-0.5958 -1.4968,-1.27007 -4.19556,-8.53632 -5.62803,-15.15334 -1.76163,-8.13761 -2.24872,-14.13929 -1.61776,-19.93176 0.45614,-4.1872 0.79284,-5.1283 2.68596,-7.50773 5.9526,-7.48169 10.34153,-6.17275 13.42571,4.00401 1.39838,4.61412 1.28772,5.97244 -0.74994,9.203 -2.96956,4.70802 -6.06623,3.47564 -6.06623,-2.41418 0,-2.39182 1.22827,-4.27157 2.34659,-3.59118 0.87554,0.53265 1.09639,3.02061 0.26817,3.02061 -0.28762,0 -0.52295,0.55964 -0.52295,1.24364 0,0.68401 0.18825,1.24365 0.41836,1.24365 0.91478,0 1.67344,-2.12919 1.67344,-4.69669 0,-5.00686 -3.44959,-5.76243 -4.97376,-1.08941 -1.40331,4.30231 -0.64202,8.65806 1.88848,10.80518 1.48664,1.2614 4.30308,-0.38735 5.94439,-3.47983 1.04469,-1.96839 1.32407,-3.40164 1.32252,-6.78474 0,-4.97975 -1.1243,-8.42626 -3.79428,-11.655 -1.47965,-1.7893 -2.34971,-2.16876 -4.9725,-2.16876 -2.83786,0 -3.44068,0.31666 -5.6174,2.9509 -2.22317,2.69043 -2.40532,2.78191 -2.06364,1.03636 0.87044,-4.44713 3.49059,-11.54571 5.27673,-14.29591 2.6017,-4.00597 6.35593,-7.2264 8.00247,-6.86464 3.15477,0.69317 8.6035,7.31564 10.4824,12.74055 0.90078,2.60077 1.79437,4.1118 2.53324,4.2836 1.4765,0.3433 1.87011,-1.37058 1.41642,-6.16723 -0.49396,-5.2223 -3.55514,-10.47752 -7.24878,-12.44419 -5.2348,-2.78727 -9.66503,-1.31424 -14.61264,4.85869 -2.37787,2.96673 -3.26555,2.6117 -3.68366,-1.47337 -0.59111,-5.77499 1.68876,-11.46544 5.98188,-14.93047 2.79732,-2.25777 3.29935,-3.63338 2.21868,-6.07945 -0.98745,-2.23511 -3.01666,-2.25028 -4.4152,-0.033 -1.36029,2.15664 -4.54991,12.61167 -4.99492,16.3725 -0.18371,1.55233 -0.0334,4.80827 0.33377,7.23542 0.59373,3.92394 0.56269,4.76347 -0.28014,7.57525 -0.52136,1.73924 -1.45816,5.14824 -2.08176,7.57557 l -1.13388,4.41332 -1.58164,-2.10999 c -3.07913,-4.10773 -6.99553,-5.1117 -10.07898,-2.58373 -1.75305,1.43723 -3.67085,5.69672 -3.67404,8.16005 -0.004,2.31718 2.85825,6.4699 4.00999,5.82003 1.75219,-0.98861 2.78645,-3.00658 2.78645,-5.43671 l 0,-2.40504 -1.225,2.25782 c -1.28671,2.37168 -2.70458,2.33623 -3.28995,-0.0823 -0.5053,-2.08767 2.20171,-6.91669 4.21261,-7.51477 2.15501,-0.64097 5.01023,1.30767 6.76752,4.6187 1.05011,1.97865 1.26786,3.52137 1.53658,10.88652 0.19423,5.32301 0.73924,10.62736 1.43543,13.97031 2.23183,10.71695 2.34546,9.61372 -1.00457,9.75423 -1.61791,0.0678 -4.25809,0.1862 -5.86707,0.263 -2.05381,0.098 -3.3534,-0.305 -4.36203,-1.35275 -3.22113,-3.34615 -2.69697,-9.46323 0.8901,-10.38763 1.08009,-0.27835 1.84723,-0.32122 1.7047,-0.0953 -0.14254,0.22595 0.10302,0.83065 0.54562,1.34376 1.1371,1.3182 0.39451,3.79105 -1.13844,3.79105 -1.39891,0 -1.61571,0.97582 -0.53329,2.40009 1.37972,1.81536 3.46549,-1.00645 3.46549,-4.68835 0,-3.8708 -4.18352,-6.56322 -6.77773,-4.36204 -0.98081,0.8322 -2.11243,4.88979 -2.11243,7.57427 0,2.06107 2.79251,6.93915 4.68314,8.18075 l 1.55027,1.01807 -1.76523,5.55733 c -2.30338,7.25155 -2.89381,7.94918 -6.72787,7.94918 -3.64162,0 -4.20084,1.02552 -2.24781,4.12194 0.97826,1.55093 1.87226,2.0963 3.4363,2.0963 2.8837,0 6.0617,-4.42375 6.56398,-9.13692 0.48965,-4.59492 2.22522,-8.25347 4.96623,-10.4687 2.4908,-2.01303 4.97271,-1.97498 7.05982,0.10833 3.54664,3.54009 7.62704,11.68287 10.03775,20.03117 1.21211,4.1977 1.27697,4.93946 0.69909,7.99753 -0.35034,1.8539 -0.99235,4.23058 -1.4267,5.28152 -1.10455,2.6727 -3.9189,5.25641 -5.72559,5.25641 -3.1871,0 -4.9997,-4.6853 -3.02425,-7.81721 1.04516,-1.65704 2.02106,-1.64737 3.64167,0.0362 1.60884,1.67129 1.72765,0.0712 0.12671,-1.70653 -1.58528,-1.76047 -3.33642,-1.62023 -4.59015,0.36752 -1.9199,3.04383 -0.9652,8.33653 1.92667,10.68125 1.3316,1.07965 1.4881,1.07638 3.5643,-0.0742 z"
               id="path4997" />
          </g>
        </g>
      </g>
    </g>
  </g>
</svg>
